0
SECTION
2
TABLES
0
TABLE
2
LTYPE
0
LTYPE
2
MTC_DASHDOT
3
Axis_line
72
65
73
4
40
11.7
49
5.0
49
-3.0
49
0.7
49
-3.0
70
0
0
LTYPE
2
MTC_DASH
3
Invisible_line
72
65
73
2
40
11.0
49
8.0
49
-3.0
70
0
0
LTYPE
2
MTC_SOLID
3
Solid_line
72
65
73
0
40
0.0
70
0
0
ENDTAB
0
TABLE
2
LAYER
0
LAYER
2
MTC_OUTLINE
62
7
6
MTC_SOLID
70
0
0
LAYER
2
MTC_TEXTN
62
8
6
MTC_SOLID
70
0
0
LAYER
2
MTC_TEXTB
62
5
6
MTC_SOLID
70
0
0
LAYER
2
MTC_THIN
62
8
6
MTC_SOLID
70
0
0
LAYER
2
MTC_AXIS
62
1
6
MTC_DASHDOT
70
0
0
LAYER
2
MTC_INVISIBLE
62
8
6
MTC_DASH
70
0
0
ENDTAB
0
ENDSEC
0
SECTION
2
ENTITIES
0
LINE
8
MTC_OUTLINE
10
-1.37380419247817
20
6.02505449728367
30
0.0
11
-1.28613676103528
21
6.04650624910114
31
0.0
0
LINE
8
MTC_OUTLINE
10
-1.28613676103528
20
6.04650624910114
30
0.0
11
-1.2314214294806
21
6.06795800091861
31
0.0
0
LINE
8
MTC_OUTLINE
10
-1.2314214294806
20
6.06795800091861
30
0.0
11
-1.1608149164443
21
6.11086150455354
31
0.0
0
LINE
8
MTC_OUTLINE
10
-1.1608149164443
20
6.11086150455354
30
0.0
11
-1.0762541058972
21
6.19666851182341
31
0.0
0
LINE
8
MTC_OUTLINE
10
-1.0762541058972
20
6.19666851182341
30
0.0
11
-1.02666778448357
21
6.28247551909328
31
0.0
0
LINE
8
MTC_OUTLINE
10
-1.02666778448357
20
6.28247551909328
30
0.0
11
-0.99797347798859
21
6.36828252636315
31
0.0
0
LINE
8
MTC_OUTLINE
10
-0.99797347798859
20
6.36828252636315
30
0.0
11
-0.984540615578828
21
6.45408953363302
31
0.0
0
LINE
8
MTC_OUTLINE
10
-0.984540615578828
20
6.45408953363302
30
0.0
11
-0.98236760382968
21
6.53989654090289
31
0.0
0
LINE
8
MTC_OUTLINE
10
-0.98236760382968
20
6.53989654090289
30
0.0
11
-0.982078666874966
21
6.62570354817277
31
0.0
0
LINE
8
MTC_OUTLINE
10
-0.982078666874966
20
6.62570354817277
30
0.0
11
-0.975772463960334
21
6.71151055544264
31
0.0
0
LINE
8
MTC_OUTLINE
10
-0.975772463960334
20
6.71151055544264
30
0.0
11
-0.96487455088575
21
6.79731756271251
31
0.0
0
LINE
8
MTC_OUTLINE
10
-0.96487455088575
20
6.79731756271251
30
0.0
11
-0.950090271517152
21
6.88312456998238
31
0.0
0
LINE
8
MTC_OUTLINE
10
-0.950090271517152
20
6.88312456998238
30
0.0
11
-0.931820743486258
21
6.96893157725225
31
0.0
0
LINE
8
MTC_OUTLINE
10
-0.931820743486258
20
6.96893157725225
30
0.0
11
-0.910335182037804
21
7.05473858452212
31
0.0
0
LINE
8
MTC_OUTLINE
10
-0.910335182037804
20
7.05473858452212
30
0.0
11
-0.885840728962785
21
7.14054559179199
31
0.0
0
LINE
8
MTC_OUTLINE
10
-0.885840728962785
20
7.14054559179199
30
0.0
11
-0.858440600387568
21
7.22635259906186
31
0.0
0
LINE
8
MTC_OUTLINE
10
-0.858440600387568
20
7.22635259906186
30
0.0
11
-0.828288559086905
21
7.31215960633173
31
0.0
0
LINE
8
MTC_OUTLINE
10
-0.828288559086905
20
7.31215960633173
30
0.0
11
-0.795434627139163
21
7.3979666136016
31
0.0
0
LINE
8
MTC_OUTLINE
10
-0.795434627139163
20
7.3979666136016
30
0.0
11
-0.759924885290629
21
7.48377362087148
31
0.0
0
LINE
8
MTC_OUTLINE
10
-0.759924885290629
20
7.48377362087148
30
0.0
11
-0.721801695510621
21
7.56958062814135
31
0.0
0
LINE
8
MTC_OUTLINE
10
-0.721801695510621
20
7.56958062814135
30
0.0
11
-0.681103904791957
21
7.65538763541122
31
0.0
0
LINE
8
MTC_OUTLINE
10
-0.681103904791957
20
7.65538763541122
30
0.0
11
-0.637867031803102
21
7.74119464268109
31
0.0
0
LINE
8
MTC_OUTLINE
10
-0.637867031803102
20
7.74119464268109
30
0.0
11
-0.592118153327953
21
7.82700164995096
31
0.0
0
LINE
8
MTC_OUTLINE
10
-0.592118153327953
20
7.82700164995096
30
0.0
11
-0.543736137558501
21
7.91280865722083
31
0.0
0
LINE
8
MTC_OUTLINE
10
-0.543736137558501
20
7.91280865722083
30
0.0
11
-0.492864536340421
21
7.9986156644907
31
0.0
0
LINE
8
MTC_OUTLINE
10
-0.492864536340421
20
7.9986156644907
30
0.0
11
-0.439356222545123
21
8.08442267176057
31
0.0
0
LINE
8
MTC_OUTLINE
10
-0.439356222545123
20
8.08442267176057
30
0.0
11
-0.383311488254832
21
8.17022967903044
31
0.0
0
LINE
8
MTC_OUTLINE
10
-0.383311488254832
20
8.17022967903044
30
0.0
11
-0.324544258007838
21
8.25603668630031
31
0.0
0
LINE
8
MTC_OUTLINE
10
-0.324544258007838
20
8.25603668630031
30
0.0
11
-0.263173216530313
21
8.34184369357018
31
0.0
0
LINE
8
MTC_OUTLINE
10
-0.263173216530313
20
8.34184369357018
30
0.0
11
-0.199012902073033
21
8.42765070084005
31
0.0
0
LINE
8
MTC_OUTLINE
10
-0.199012902073033
20
8.42765070084005
30
0.0
11
-0.149265743621023
21
8.4286785564727
31
0.0
0
LINE
8
MTC_OUTLINE
10
-0.149265743621023
20
8.4286785564727
30
0.0
11
-9.95133848869072E-02
21
8.42941276464676
31
0.0
0
LINE
8
MTC_OUTLINE
10
-9.95133848869072E-02
20
8.42941276464676
30
0.0
11
-0.0497575591974
21
8.4298532997831
31
0.0
0
LINE
8
MTC_OUTLINE
10
-0.0497575591974
20
8.4298532997831
30
0.0
11
0
21
8.43000014653389
31
0.0
0
LINE
8
MTC_OUTLINE
10
0
20
8.43000014653389
30
0.0
11
0.0497575591974
21
8.4298532997831
31
0.0
0
LINE
8
MTC_OUTLINE
10
0.0497575591974
20
8.4298532997831
30
0.0
11
9.95133848869072E-02
21
8.42941276464676
31
0.0
0
LINE
8
MTC_OUTLINE
10
9.95133848869072E-02
20
8.42941276464676
30
0.0
11
0.149265743621023
21
8.4286785564727
31
0.0
0
LINE
8
MTC_OUTLINE
10
0.149265743621023
20
8.4286785564727
30
0.0
11
0.199012902073033
21
8.42765070084005
31
0.0
0
LINE
8
MTC_OUTLINE
10
0.199012902073033
20
8.42765070084005
30
0.0
11
0.263173216530313
21
8.34184369357018
31
0.0
0
LINE
8
MTC_OUTLINE
10
0.263173216530313
20
8.34184369357018
30
0.0
11
0.324544258007838
21
8.25603668630031
31
0.0
0
LINE
8
MTC_OUTLINE
10
0.324544258007838
20
8.25603668630031
30
0.0
11
0.383311488254832
21
8.17022967903044
31
0.0
0
LINE
8
MTC_OUTLINE
10
0.383311488254832
20
8.17022967903044
30
0.0
11
0.439356222545123
21
8.08442267176057
31
0.0
0
LINE
8
MTC_OUTLINE
10
0.439356222545123
20
8.08442267176057
30
0.0
11
0.492864536340421
21
7.9986156644907
31
0.0
0
LINE
8
MTC_OUTLINE
10
0.492864536340421
20
7.9986156644907
30
0.0
11
0.543736137558501
21
7.91280865722083
31
0.0
0
LINE
8
MTC_OUTLINE
10
0.543736137558501
20
7.91280865722083
30
0.0
11
0.592118153327953
21
7.82700164995096
31
0.0
0
LINE
8
MTC_OUTLINE
10
0.592118153327953
20
7.82700164995096
30
0.0
11
0.637867031803102
21
7.74119464268109
31
0.0
0
LINE
8
MTC_OUTLINE
10
0.637867031803102
20
7.74119464268109
30
0.0
11
0.681103904791957
21
7.65538763541122
31
0.0
0
LINE
8
MTC_OUTLINE
10
0.681103904791957
20
7.65538763541122
30
0.0
11
0.721801695510621
21
7.56958062814135
31
0.0
0
LINE
8
MTC_OUTLINE
10
0.721801695510621
20
7.56958062814135
30
0.0
11
0.759924885290629
21
7.48377362087148
31
0.0
0
LINE
8
MTC_OUTLINE
10
0.759924885290629
20
7.48377362087148
30
0.0
11
0.795434627139163
21
7.3979666136016
31
0.0
0
LINE
8
MTC_OUTLINE
10
0.795434627139163
20
7.3979666136016
30
0.0
11
0.828288559086905
21
7.31215960633173
31
0.0
0
LINE
8
MTC_OUTLINE
10
0.828288559086905
20
7.31215960633173
30
0.0
11
0.858440600387568
21
7.22635259906186
31
0.0
0
LINE
8
MTC_OUTLINE
10
0.858440600387568
20
7.22635259906186
30
0.0
11
0.885840728962785
21
7.14054559179199
31
0.0
0
LINE
8
MTC_OUTLINE
10
0.885840728962785
20
7.14054559179199
30
0.0
11
0.910335182037804
21
7.05473858452212
31
0.0
0
LINE
8
MTC_OUTLINE
10
0.910335182037804
20
7.05473858452212
30
0.0
11
0.931820743486258
21
6.96893157725225
31
0.0
0
LINE
8
MTC_OUTLINE
10
0.931820743486258
20
6.96893157725225
30
0.0
11
0.950090271517152
21
6.88312456998238
31
0.0
0
LINE
8
MTC_OUTLINE
10
0.950090271517152
20
6.88312456998238
30
0.0
11
0.96487455088575
21
6.79731756271251
31
0.0
0
LINE
8
MTC_OUTLINE
10
0.96487455088575
20
6.79731756271251
30
0.0
11
0.975772463960334
21
6.71151055544264
31
0.0
0
LINE
8
MTC_OUTLINE
10
0.975772463960334
20
6.71151055544264
30
0.0
11
0.982078666874966
21
6.62570354817277
31
0.0
0
LINE
8
MTC_OUTLINE
10
0.982078666874966
20
6.62570354817277
30
0.0
11
0.98236760382968
21
6.53989654090289
31
0.0
0
LINE
8
MTC_OUTLINE
10
0.98236760382968
20
6.53989654090289
30
0.0
11
0.984540615578828
21
6.45408953363302
31
0.0
0
LINE
8
MTC_OUTLINE
10
0.984540615578828
20
6.45408953363302
30
0.0
11
0.99797347798859
21
6.36828252636315
31
0.0
0
LINE
8
MTC_OUTLINE
10
0.99797347798859
20
6.36828252636315
30
0.0
11
1.02666778448357
21
6.28247551909328
31
0.0
0
LINE
8
MTC_OUTLINE
10
1.02666778448357
20
6.28247551909328
30
0.0
11
1.0762541058972
21
6.19666851182341
31
0.0
0
LINE
8
MTC_OUTLINE
10
1.0762541058972
20
6.19666851182341
30
0.0
11
1.1608149164443
21
6.11086150455354
31
0.0
0
LINE
8
MTC_OUTLINE
10
1.1608149164443
20
6.11086150455354
30
0.0
11
1.2314214294806
21
6.06795800091861
31
0.0
0
LINE
8
MTC_OUTLINE
10
1.2314214294806
20
6.06795800091861
30
0.0
11
1.28613676103528
21
6.04650624910114
31
0.0
0
LINE
8
MTC_OUTLINE
10
1.28613676103528
20
6.04650624910114
30
0.0
11
1.37380419247817
21
6.02505449728367
31
0.0
0
LINE
8
MTC_OUTLINE
10
1.37380419247817
20
6.02505449728367
30
0.0
11
1.37641836565184
21
6.02445782931585
31
0.0
0
LINE
8
MTC_OUTLINE
10
-3.85192798168515
20
4.83231522962024
30
0.0
11
-3.78224992151532
21
4.88968006312302
31
0.0
0
LINE
8
MTC_OUTLINE
10
-3.78224992151532
20
4.88968006312302
30
0.0
11
-3.74226067747678
21
4.93274751631453
31
0.0
0
LINE
8
MTC_OUTLINE
10
-3.74226067747678
20
4.93274751631453
30
0.0
11
-3.6972615399383
21
5.00203725529579
31
0.0
0
LINE
8
MTC_OUTLINE
10
-3.6972615399383
20
5.00203725529579
30
0.0
11
-3.6583051473475
21
5.11603625815681
31
0.0
0
LINE
8
MTC_OUTLINE
10
-3.6583051473475
20
5.11603625815681
30
0.0
11
-3.65085968063676
21
5.21486039889887
31
0.0
0
LINE
8
MTC_OUTLINE
10
-3.65085968063676
20
5.21486039889887
30
0.0
11
-3.66223726895547
21
5.30461983409033
31
0.0
0
LINE
8
MTC_OUTLINE
10
-3.66223726895547
20
5.30461983409033
30
0.0
11
-3.6873649432742
21
5.38775757685776
31
0.0
0
LINE
8
MTC_OUTLINE
10
-3.6873649432742
20
5.38775757685776
30
0.0
11
-3.72263739249537
21
5.46600985351865
31
0.0
0
LINE
8
MTC_OUTLINE
10
-3.72263739249537
20
5.46600985351865
30
0.0
11
-3.75960733445112
21
5.54344466076296
31
0.0
0
LINE
8
MTC_OUTLINE
10
-3.75960733445112
20
5.54344466076296
30
0.0
11
-3.7911559071071
21
5.62349026186123
31
0.0
0
LINE
8
MTC_OUTLINE
10
-3.7911559071071
20
5.62349026186123
30
0.0
11
-3.81856749185854
21
5.70552813133264
31
0.0
0
LINE
8
MTC_OUTLINE
10
-3.81856749185854
20
5.70552813133264
30
0.0
11
-3.8424775815698
21
5.78925223194327
31
0.0
0
LINE
8
MTC_OUTLINE
10
-3.8424775815698
20
5.78925223194327
30
0.0
11
-3.86324757073943
21
5.87448852527526
31
0.0
0
LINE
8
MTC_OUTLINE
10
-3.86324757073943
20
5.87448852527526
30
0.0
11
-3.88112001392171
21
5.96112020321159
31
0.0
0
LINE
8
MTC_OUTLINE
10
-3.88112001392171
20
5.96112020321159
30
0.0
11
-3.89628153942156
21
6.04905739029745
31
0.0
0
LINE
8
MTC_OUTLINE
10
-3.89628153942156
20
6.04905739029745
30
0.0
11
-3.9088251417555
21
6.13825530273399
31
0.0
0
LINE
8
MTC_OUTLINE
10
-3.9088251417555
20
6.13825530273399
30
0.0
11
-3.91888935639664
21
6.22864722535358
31
0.0
0
LINE
8
MTC_OUTLINE
10
-3.91888935639664
20
6.22864722535358
30
0.0
11
-3.92651925168027
21
6.32021145438981
31
0.0
0
LINE
8
MTC_OUTLINE
10
-3.92651925168027
20
6.32021145438981
30
0.0
11
-3.93175634492423
21
6.41292799615618
31
0.0
0
LINE
8
MTC_OUTLINE
10
-3.93175634492423
20
6.41292799615618
30
0.0
11
-3.93463880294405
21
6.50677847048305
31
0.0
0
LINE
8
MTC_OUTLINE
10
-3.93463880294405
20
6.50677847048305
30
0.0
11
-3.93520162567086
21
6.60174602229192
31
0.0
0
LINE
8
MTC_OUTLINE
10
-3.93520162567086
20
6.60174602229192
30
0.0
11
-3.93347681431919
21
6.69781524061011
31
0.0
0
LINE
8
MTC_OUTLINE
10
-3.93347681431919
20
6.69781524061011
30
0.0
11
-3.92948876422837
21
6.79497437726137
31
0.0
0
LINE
8
MTC_OUTLINE
10
-3.92948876422837
20
6.79497437726137
30
0.0
11
-3.92312833941047
21
6.89327598936749
31
0.0
0
LINE
8
MTC_OUTLINE
10
-3.92312833941047
20
6.89327598936749
30
0.0
11
-3.91452487560937
21
6.99265779211692
31
0.0
0
LINE
8
MTC_OUTLINE
10
-3.91452487560937
20
6.99265779211692
30
0.0
11
-3.9035458158626
21
7.09318362157833
31
0.0
0
LINE
8
MTC_OUTLINE
10
-3.9035458158626
20
7.09318362157833
30
0.0
11
-3.89028152021392
21
7.19480996264808
31
0.0
0
LINE
8
MTC_OUTLINE
10
-3.89028152021392
20
7.19480996264808
30
0.0
11
-3.87456434046526
21
7.29761755044326
31
0.0
0
LINE
8
MTC_OUTLINE
10
-3.87456434046526
20
7.29761755044326
30
0.0
11
-3.85650120786
21
7.4015548895911
31
0.0
0
LINE
8
MTC_OUTLINE
10
-3.85650120786
20
7.4015548895911
30
0.0
11
-3.8359250271359
21
7.50670244892881
31
0.0
0
LINE
8
MTC_OUTLINE
10
-3.8359250271359
20
7.50670244892881
30
0.0
11
-3.7915503559492
21
7.52921299797415
31
0.0
0
LINE
8
MTC_OUTLINE
10
-3.7915503559492
20
7.52921299797415
30
0.0
11
-3.7470435906129
21
7.55146123611902
31
0.0
0
LINE
8
MTC_OUTLINE
10
-3.7470435906129
20
7.55146123611902
30
0.0
11
-3.70240628170204
21
7.57344638825513
31
0.0
0
LINE
8
MTC_OUTLINE
10
-3.70240628170204
20
7.57344638825513
30
0.0
11
-3.65763998433968
21
7.59516768843987
31
0.0
0
LINE
8
MTC_OUTLINE
10
-3.65763998433968
20
7.59516768843987
30
0.0
11
-3.61274625814271
21
7.61662437992299
31
0.0
0
LINE
8
MTC_OUTLINE
10
-3.61274625814271
20
7.61662437992299
30
0.0
11
-3.56772666716751
21
7.63781571517297
31
0.0
0
LINE
8
MTC_OUTLINE
10
-3.56772666716751
20
7.63781571517297
30
0.0
11
-3.52258277985551
21
7.65874095590306
31
0.0
0
LINE
8
MTC_OUTLINE
10
-3.52258277985551
20
7.65874095590306
30
0.0
11
-3.47731616897847
21
7.67939937309698
31
0.0
0
LINE
8
MTC_OUTLINE
10
-3.47731616897847
20
7.67939937309698
30
0.0
11
-3.38227945794089
21
7.62992804803863
31
0.0
0
LINE
8
MTC_OUTLINE
10
-3.38227945794089
20
7.62992804803863
30
0.0
11
-3.28975579502216
21
7.57924650279041
31
0.0
0
LINE
8
MTC_OUTLINE
10
-3.28975579502216
20
7.57924650279041
30
0.0
11
-3.19957808496002
21
7.52743520618953
31
0.0
0
LINE
8
MTC_OUTLINE
10
-3.19957808496002
20
7.52743520618953
30
0.0
11
-3.11185325899787
21
7.47444266286322
31
0.0
0
LINE
8
MTC_OUTLINE
10
-3.11185325899787
20
7.47444266286322
30
0.0
11
-3.02641366893761
21
7.42034960792857
31
0.0
0
LINE
8
MTC_OUTLINE
10
-3.02641366893761
20
7.42034960792857
30
0.0
11
-2.94334967482304
21
7.36511252628193
31
0.0
0
LINE
8
MTC_OUTLINE
10
-2.94334967482304
20
7.36511252628193
30
0.0
11
-2.86252871969166
21
7.308795253992
31
0.0
0
LINE
8
MTC_OUTLINE
10
-2.86252871969166
20
7.308795253992
30
0.0
11
-2.78408013928736
21
7.2513355062472
31
0.0
0
LINE
8
MTC_OUTLINE
10
-2.78408013928736
20
7.2513355062472
30
0.0
11
-2.70789479762221
21
7.19278584016933
31
0.0
0
LINE
8
MTC_OUTLINE
10
-2.70789479762221
20
7.19278584016933
30
0.0
11
-2.63399709003555
21
7.13313450758213
31
0.0
0
LINE
8
MTC_OUTLINE
10
-2.63399709003555
20
7.13313450758213
30
0.0
11
-2.56241901774189
21
7.07236609751294
31
0.0
0
LINE
8
MTC_OUTLINE
10
-2.56241901774189
20
7.07236609751294
30
0.0
11
-2.49319558067237
21
7.01046375488325
31
0.0
0
LINE
8
MTC_OUTLINE
10
-2.49319558067237
20
7.01046375488325
30
0.0
11
-2.42636494564253
21
6.94740909952342
31
0.0
0
LINE
8
MTC_OUTLINE
10
-2.42636494564253
20
6.94740909952342
30
0.0
11
-2.36196862997018
21
6.88318213774695
31
0.0
0
LINE
8
MTC_OUTLINE
10
-2.36196862997018
20
6.88318213774695
30
0.0
11
-2.30005170199065
21
6.81776116578744
31
0.0
0
LINE
8
MTC_OUTLINE
10
-2.30005170199065
20
6.81776116578744
30
0.0
11
-2.24075269717702
21
6.75107946847724
31
0.0
0
LINE
8
MTC_OUTLINE
10
-2.24075269717702
20
6.75107946847724
30
0.0
11
-2.18416461004582
21
6.6830922620175
31
0.0
0
LINE
8
MTC_OUTLINE
10
-2.18416461004582
20
6.6830922620175
30
0.0
11
-2.13047406890197
21
6.61370967095343
31
0.0
0
LINE
8
MTC_OUTLINE
10
-2.13047406890197
20
6.61370967095343
30
0.0
11
-2.07992362829976
21
6.542814887168
31
0.0
0
LINE
8
MTC_OUTLINE
10
-2.07992362829976
20
6.542814887168
30
0.0
11
-2.03287468273771
21
6.47023387224335
31
0.0
0
LINE
8
MTC_OUTLINE
10
-2.03287468273771
20
6.47023387224335
30
0.0
11
-1.98996272508021
21
6.39566058894556
31
0.0
0
LINE
8
MTC_OUTLINE
10
-1.98996272508021
20
6.39566058894556
30
0.0
11
-1.95247213672249
21
6.31847651179381
31
0.0
0
LINE
8
MTC_OUTLINE
10
-1.95247213672249
20
6.31847651179381
30
0.0
11
-1.91328405563018
21
6.24210990405864
31
0.0
0
LINE
8
MTC_OUTLINE
10
-1.91328405563018
20
6.24210990405864
30
0.0
11
-1.86395119963543
21
6.17062876243001
31
0.0
0
LINE
8
MTC_OUTLINE
10
-1.86395119963543
20
6.17062876243001
30
0.0
11
-1.80086825764066
21
6.10576931322541
31
0.0
0
LINE
8
MTC_OUTLINE
10
-1.80086825764066
20
6.10576931322541
30
0.0
11
-1.71896226061645
21
6.04997456957141
31
0.0
0
LINE
8
MTC_OUTLINE
10
-1.71896226061645
20
6.04997456957141
30
0.0
11
-1.60554533771217
21
6.00935468803636
31
0.0
0
LINE
8
MTC_OUTLINE
10
-1.60554533771217
20
6.00935468803636
30
0.0
11
-1.52331593501695
21
6.00133498481959
31
0.0
0
LINE
8
MTC_OUTLINE
10
-1.52331593501695
20
6.00133498481959
30
0.0
11
-1.46471155840004
21
6.00574771691209
31
0.0
0
LINE
8
MTC_OUTLINE
10
-1.46471155840004
20
6.00574771691209
30
0.0
11
-1.37641836565184
21
6.02445782931585
31
0.0
0
LINE
8
MTC_OUTLINE
10
-1.37641836565184
20
6.02445782931585
30
0.0
11
-1.37380419247817
21
6.02505449728367
31
0.0
0
LINE
8
MTC_OUTLINE
10
-5.56713019332287
20
2.68247666627347
30
0.0
11
-5.52924209878807
21
2.76439277265282
31
0.0
0
LINE
8
MTC_OUTLINE
10
-5.52924209878807
20
2.76439277265282
30
0.0
11
-5.51189930248339
21
2.82054588992615
31
0.0
0
LINE
8
MTC_OUTLINE
10
-5.51189930248339
20
2.82054588992615
30
0.0
11
-5.50142017151042
21
2.90249818166561
31
0.0
0
LINE
8
MTC_OUTLINE
10
-5.50142017151042
20
2.90249818166561
30
0.0
11
-5.51578398819735
21
3.02211027949513
31
0.0
0
LINE
8
MTC_OUTLINE
10
-5.51578398819735
20
3.02211027949513
30
0.0
11
-5.55195404218421
21
3.11437822063686
31
0.0
0
LINE
8
MTC_OUTLINE
10
-5.55195404218421
20
3.11437822063686
30
0.0
11
-5.60115005441313
21
3.19031212678301
31
0.0
0
LINE
8
MTC_OUTLINE
10
-5.60115005441313
20
3.19031212678301
30
0.0
11
-5.65986142139082
21
3.2543141554754
31
0.0
0
LINE
8
MTC_OUTLINE
10
-5.65986142139082
20
3.2543141554754
30
0.0
11
-5.72559319042585
21
3.30951287843344
31
0.0
0
LINE
8
MTC_OUTLINE
10
-5.72559319042585
20
3.30951287843344
30
0.0
11
-5.79249966088116
21
3.36323857240187
31
0.0
0
LINE
8
MTC_OUTLINE
10
-5.79249966088116
20
3.36323857240187
30
0.0
11
-5.85565442737538
21
3.42166875433614
31
0.0
0
LINE
8
MTC_OUTLINE
10
-5.85565442737538
20
3.42166875433614
30
0.0
11
-5.91594630941178
21
3.48368887983184
31
0.0
0
LINE
8
MTC_OUTLINE
10
-5.91594630941178
20
3.48368887983184
30
0.0
11
-5.97381508169758
21
3.54874748884859
31
0.0
0
LINE
8
MTC_OUTLINE
10
-5.97381508169758
20
3.54874748884859
30
0.0
11
-6.02951083698549
21
3.61653097499376
31
0.0
0
LINE
8
MTC_OUTLINE
10
-6.02951083698549
20
3.61653097499376
30
0.0
11
-6.08320142823512
21
3.68682885731344
31
0.0
0
LINE
8
MTC_OUTLINE
10
-6.08320142823512
20
3.68682885731344
30
0.0
11
-6.13501600624069
21
3.75947918583411
31
0.0
0
LINE
8
MTC_OUTLINE
10
-6.13501600624069
20
3.75947918583411
30
0.0
11
-6.18501892520437
21
3.83440126293867
31
0.0
0
LINE
8
MTC_OUTLINE
10
-6.18501892520437
20
3.83440126293867
30
0.0
11
-6.23330605464813
21
3.91147487204899
31
0.0
0
LINE
8
MTC_OUTLINE
10
-6.23330605464813
20
3.91147487204899
30
0.0
11
-6.2799085828277
21
3.99066090432938
31
0.0
0
LINE
8
MTC_OUTLINE
10
-6.2799085828277
20
3.99066090432938
30
0.0
11
-6.32485524061845
21
4.07192333240166
31
0.0
0
LINE
8
MTC_OUTLINE
10
-6.32485524061845
20
4.07192333240166
30
0.0
11
-6.36817244027624
21
4.15522903634456
31
0.0
0
LINE
8
MTC_OUTLINE
10
-6.36817244027624
20
4.15522903634456
30
0.0
11
-6.40988440250492
21
4.24054764435608
31
0.0
0
LINE
8
MTC_OUTLINE
10
-6.40988440250492
20
4.24054764435608
30
0.0
11
-6.45001327283205
21
4.32785138682303
31
0.0
0
LINE
8
MTC_OUTLINE
10
-6.45001327283205
20
4.32785138682303
30
0.0
11
-6.48857593335627
21
4.41711909426328
31
0.0
0
LINE
8
MTC_OUTLINE
10
-6.48857593335627
20
4.41711909426328
30
0.0
11
-6.5254968596306
21
4.50844547133789
31
0.0
0
LINE
8
MTC_OUTLINE
10
-6.5254968596306
20
4.50844547133789
30
0.0
11
-6.56086555476685
21
4.60171828469453
31
0.0
0
LINE
8
MTC_OUTLINE
10
-6.56086555476685
20
4.60171828469453
30
0.0
11
-6.59459028650077
21
4.69705256295425
31
0.0
0
LINE
8
MTC_OUTLINE
10
-6.59459028650077
20
4.69705256295425
30
0.0
11
-6.62673358592284
21
4.79436989460974
31
0.0
0
LINE
8
MTC_OUTLINE
10
-6.62673358592284
20
4.79436989460974
30
0.0
11
-6.65717943688031
21
4.89381575931507
31
0.0
0
LINE
8
MTC_OUTLINE
10
-6.65717943688031
20
4.89381575931507
30
0.0
11
-6.68600183808957
21
4.99529736561483
31
0.0
0
LINE
8
MTC_OUTLINE
10
-6.68600183808957
20
4.99529736561483
30
0.0
11
-6.71308515604135
21
5.09895971334336
31
0.0
0
LINE
8
MTC_OUTLINE
10
-6.71308515604135
20
5.09895971334336
30
0.0
11
-6.6828719199681
21
5.13849446548921
31
0.0
0
LINE
8
MTC_OUTLINE
10
-6.6828719199681
20
5.13849446548921
30
0.0
11
-6.65242585874414
21
5.17785019718355
31
0.0
0
LINE
8
MTC_OUTLINE
10
-6.65242585874414
20
5.17785019718355
30
0.0
11
-6.62174803308239
21
5.21702553730867
31
0.0
0
LINE
8
MTC_OUTLINE
10
-6.62174803308239
20
5.21702553730867
30
0.0
11
-6.59083951177029
21
5.25601912103151
31
0.0
0
LINE
8
MTC_OUTLINE
10
-6.59083951177029
20
5.25601912103151
30
0.0
11
-6.55970137163247
21
5.29482958985126
31
0.0
0
LINE
8
MTC_OUTLINE
10
-6.55970137163247
20
5.29482958985126
30
0.0
11
-6.52833469749328
21
5.33345559164664
31
0.0
0
LINE
8
MTC_OUTLINE
10
-6.52833469749328
20
5.33345559164664
30
0.0
11
-6.49674058213897
21
5.37189578072304
31
0.0
0
LINE
8
MTC_OUTLINE
10
-6.49674058213897
20
5.37189578072304
30
0.0
11
-6.46492012627966
21
5.41014881785941
31
0.0
0
LINE
8
MTC_OUTLINE
10
-6.46492012627966
20
5.41014881785941
30
0.0
11
-6.35783020483155
21
5.40681157766638
31
0.0
0
LINE
8
MTC_OUTLINE
10
-6.35783020483155
20
5.40681157766638
30
0.0
11
-6.25247936664091
21
5.40129359604458
31
0.0
0
LINE
8
MTC_OUTLINE
10
-6.25247936664091
20
5.40129359604458
30
0.0
11
-6.14875197819848
21
5.39373987282834
31
0.0
0
LINE
8
MTC_OUTLINE
10
-6.14875197819848
20
5.39373987282834
30
0.0
11
-6.04672203822065
21
5.38405761656226
31
0.0
0
LINE
8
MTC_OUTLINE
10
-6.04672203822065
20
5.38405761656226
30
0.0
11
-5.94627353055468
21
5.37239230690042
31
0.0
0
LINE
8
MTC_OUTLINE
10
-5.94627353055468
20
5.37239230690042
30
0.0
11
-5.84746898629103
21
5.35866553233549
31
0.0
0
LINE
8
MTC_OUTLINE
10
-5.84746898629103
20
5.35866553233549
30
0.0
11
-5.75021667316546
21
5.34299232148853
31
0.0
0
LINE
8
MTC_OUTLINE
10
-5.75021667316546
20
5.34299232148853
30
0.0
11
-5.65460609428979
21
5.32526044100723
31
0.0
0
LINE
8
MTC_OUTLINE
10
-5.65460609428979
20
5.32526044100723
30
0.0
11
-5.56056172521703
21
5.3055645955526
31
0.0
0
LINE
8
MTC_OUTLINE
10
-5.56056172521703
20
5.3055645955526
30
0.0
11
-5.46810044804581
21
5.28388361564257
31
0.0
0
LINE
8
MTC_OUTLINE
10
-5.46810044804581
20
5.28388361564257
30
0.0
11
-5.3772444083037
21
5.2601897316639
31
0.0
0
LINE
8
MTC_OUTLINE
10
-5.3772444083037
20
5.2601897316639
30
0.0
11
-5.28801782669456
21
5.23445257181461
31
0.0
0
LINE
8
MTC_OUTLINE
10
-5.28801782669456
20
5.23445257181461
30
0.0
11
-5.20044711547423
21
5.20663901617344
31
0.0
0
LINE
8
MTC_OUTLINE
10
-5.20044711547423
20
5.20663901617344
30
0.0
11
-5.11456100551809
21
5.17671303736219
31
0.0
0
LINE
8
MTC_OUTLINE
10
-5.11456100551809
20
5.17671303736219
30
0.0
11
-5.03039068508188
21
5.14463552654518
31
0.0
0
LINE
8
MTC_OUTLINE
10
-5.03039068508188
20
5.14463552654518
30
0.0
11
-4.94803202368755
21
5.11028626714428
31
0.0
0
LINE
8
MTC_OUTLINE
10
-4.94803202368755
20
5.11028626714428
30
0.0
11
-4.86754937553728
21
5.0735845615424
31
0.0
0
LINE
8
MTC_OUTLINE
10
-4.86754937553728
20
5.0735845615424
30
0.0
11
-4.7890718914253
21
5.03436845976601
31
0.0
0
LINE
8
MTC_OUTLINE
10
-4.7890718914253
20
5.03436845976601
30
0.0
11
-4.7127674243112
21
4.9924274808612
31
0.0
0
LINE
8
MTC_OUTLINE
10
-4.7127674243112
20
4.9924274808612
30
0.0
11
-4.6388860669477
21
4.94744801843532
31
0.0
0
LINE
8
MTC_OUTLINE
10
-4.6388860669477
20
4.94744801843532
30
0.0
11
-4.56786759404203
21
4.89887861244803
31
0.0
0
LINE
8
MTC_OUTLINE
10
-4.56786759404203
20
4.89887861244803
30
0.0
11
-4.50060082509744
21
4.84560471849489
31
0.0
0
LINE
8
MTC_OUTLINE
10
-4.50060082509744
20
4.84560471849489
30
0.0
11
-4.43215935473258
21
4.79380385353137
31
0.0
0
LINE
8
MTC_OUTLINE
10
-4.43215935473258
20
4.79380385353137
30
0.0
11
-4.35669748231037
21
4.7508062943022
31
0.0
0
LINE
8
MTC_OUTLINE
10
-4.35669748231037
20
4.7508062943022
30
0.0
11
-4.27172025513939
21
4.71974061252678
31
0.0
0
LINE
8
MTC_OUTLINE
10
-4.27172025513939
20
4.71974061252678
30
0.0
11
-4.17371706972636
21
4.70500896574694
31
0.0
0
LINE
8
MTC_OUTLINE
10
-4.17371706972636
20
4.70500896574694
30
0.0
11
-4.05390764701339
21
4.7176214756549
31
0.0
0
LINE
8
MTC_OUTLINE
10
-4.05390764701339
20
4.7176214756549
30
0.0
11
-3.97634189634047
21
4.74607397343358
31
0.0
0
LINE
8
MTC_OUTLINE
10
-3.97634189634047
20
4.74607397343358
30
0.0
11
-3.92545579018582
21
4.77547719372651
31
0.0
0
LINE
8
MTC_OUTLINE
10
-3.92545579018582
20
4.77547719372651
30
0.0
11
-3.85402438580104
21
4.83064340312547
31
0.0
0
LINE
8
MTC_OUTLINE
10
-3.85402438580104
20
4.83064340312547
30
0.0
11
-3.85192798168515
21
4.83231522962024
31
0.0
0
LINE
8
MTC_OUTLINE
10
-6.17969399380182
20
1.34070075388369E-03
30
0.0
11
-6.18110006669164
21
9.15835905062647E-02
31
0.0
0
LINE
8
MTC_OUTLINE
10
-6.18110006669164
20
9.15835905062647E-02
30
0.0
11
-6.18983867162441
21
0.149700558312631
31
0.0
0
LINE
8
MTC_OUTLINE
10
-6.18983867162441
20
0.149700558312631
30
0.0
11
-6.21595506762427
21
0.228083746352393
31
0.0
0
LINE
8
MTC_OUTLINE
10
-6.21595506762427
20
0.228083746352393
30
0.0
11
-6.28079416353341
21
0.32961829622917
31
0.0
0
LINE
8
MTC_OUTLINE
10
-6.28079416353341
20
0.32961829622917
30
0.0
11
-6.35341581542918
21
0.397055240435421
31
0.0
0
LINE
8
MTC_OUTLINE
10
-6.35341581542918
20
0.397055240435421
30
0.0
11
-6.43068637799687
21
0.444123976155766
31
0.0
0
LINE
8
MTC_OUTLINE
10
-6.43068637799687
20
0.444123976155766
30
0.0
11
-6.51135293135593
21
0.47631390405723
31
0.0
0
LINE
8
MTC_OUTLINE
10
-6.51135293135593
20
0.47631390405723
30
0.0
11
-6.59452503720019
21
0.49752628926266
31
0.0
0
LINE
8
MTC_OUTLINE
10
-6.59452503720019
20
0.49752628926266
30
0.0
11
-6.67811638912736
21
0.51690183736236
31
0.0
0
LINE
8
MTC_OUTLINE
10
-6.67811638912736
20
0.51690183736236
30
0.0
11
-6.76036877341327
21
0.542143786001404
31
0.0
0
LINE
8
MTC_OUTLINE
10
-6.76036877341327
20
0.542143786001404
30
0.0
11
-6.84159940606592
21
0.571862321040036
31
0.0
0
LINE
8
MTC_OUTLINE
10
-6.84159940606592
20
0.571862321040036
30
0.0
11
-6.92196524086114
21
0.605369783055663
31
0.0
0
LINE
8
MTC_OUTLINE
10
-6.92196524086114
20
0.605369783055663
30
0.0
11
-7.00155553486895
21
0.642275111273059
31
0.0
0
LINE
8
MTC_OUTLINE
10
-7.00155553486895
20
0.642275111273059
30
0.0
11
-7.08043019411705
21
0.682315840235743
31
0.0
0
LINE
8
MTC_OUTLINE
10
-7.08043019411705
20
0.682315840235743
30
0.0
11
-7.15863531199023
21
0.725290021629895
31
0.0
0
LINE
8
MTC_OUTLINE
10
-7.15863531199023
20
0.725290021629895
30
0.0
11
-7.23619385623734
21
0.771097027172933
31
0.0
0
LINE
8
MTC_OUTLINE
10
-7.23619385623734
20
0.771097027172933
30
0.0
11
-7.31314004229461
21
0.819586949243897
31
0.0
0
LINE
8
MTC_OUTLINE
10
-7.31314004229461
20
0.819586949243897
30
0.0
11
-7.38948500112165
21
0.87071101992236
31
0.0
0
LINE
8
MTC_OUTLINE
10
-7.38948500112165
20
0.87071101992236
30
0.0
11
-7.46523898664915
21
0.924424313802554
31
0.0
0
LINE
8
MTC_OUTLINE
10
-7.46523898664915
20
0.924424313802554
30
0.0
11
-7.54041142530209
21
0.980685531018177
31
0.0
0
LINE
8
MTC_OUTLINE
10
-7.54041142530209
20
0.980685531018177
30
0.0
11
-7.6150109613496
21
1.03945679855163
31
0.0
0
LINE
8
MTC_OUTLINE
10
-7.6150109613496
20
1.03945679855163
30
0.0
11
-7.68904549843896
21
1.10070348826161
31
0.0
0
LINE
8
MTC_OUTLINE
10
-7.68904549843896
20
1.10070348826161
30
0.0
11
-7.7625210617214
21
1.16439920223573
31
0.0
0
LINE
8
MTC_OUTLINE
10
-7.7625210617214
20
1.16439920223573
30
0.0
11
-7.83541069683388
21
1.23066203525468
31
0.0
0
LINE
8
MTC_OUTLINE
10
-7.83541069683388
20
1.23066203525468
30
0.0
11
-7.90774634706716
21
1.29935203461726
31
0.0
0
LINE
8
MTC_OUTLINE
10
-7.90774634706716
20
1.29935203461726
30
0.0
11
-7.97949527355519
21
1.37061263866777
31
0.0
0
LINE
8
MTC_OUTLINE
10
-7.97949527355519
20
1.37061263866777
30
0.0
11
-8.05067979338577
21
1.44434606985587
31
0.0
0
LINE
8
MTC_OUTLINE
10
-8.05067979338577
20
1.44434606985587
30
0.0
11
-8.12125850087337
21
1.52073373834297
31
0.0
0
LINE
8
MTC_OUTLINE
10
-8.12125850087337
20
1.52073373834297
30
0.0
11
-8.1912578058541
21
1.59965993507677
31
0.0
0
LINE
8
MTC_OUTLINE
10
-8.1912578058541
20
1.59965993507677
30
0.0
11
-8.26063643920632
21
1.68130547189322
31
0.0
0
LINE
8
MTC_OUTLINE
10
-8.26063643920632
20
1.68130547189322
30
0.0
11
-8.25056874019186
21
1.73003408461516
31
0.0
0
LINE
8
MTC_OUTLINE
10
-8.25056874019186
20
1.73003408461516
30
0.0
11
-8.24021359890207
21
1.77870242453055
31
0.0
0
LINE
8
MTC_OUTLINE
10
-8.24021359890207
20
1.77870242453055
30
0.0
11
-8.22957137610059
21
1.82730879607888
31
0.0
0
LINE
8
MTC_OUTLINE
10
-8.22957137610059
20
1.82730879607888
30
0.0
11
-8.21864244255275
21
1.8758515058586
31
0.0
0
LINE
8
MTC_OUTLINE
10
-8.21864244255275
20
1.8758515058586
30
0.0
11
-8.2074271790126
21
1.92432886268605
31
0.0
0
LINE
8
MTC_OUTLINE
10
-8.2074271790126
20
1.92432886268605
30
0.0
11
-8.19592597620969
21
1.97273917765443
31
0.0
0
LINE
8
MTC_OUTLINE
10
-8.19592597620969
20
1.97273917765443
30
0.0
11
-8.1841392348354
21
2.02108076419259
31
0.0
0
LINE
8
MTC_OUTLINE
10
-8.1841392348354
20
2.02108076419259
30
0.0
11
-8.17206736552903
21
2.06935193812384
31
0.0
0
LINE
8
MTC_OUTLINE
10
-8.17206736552903
20
2.06935193812384
30
0.0
11
-8.07413470598487
21
2.11280976414491
31
0.0
0
LINE
8
MTC_OUTLINE
10
-8.07413470598487
20
2.11280976414491
30
0.0
11
-7.97682271806924
21
2.15354825008333
31
0.0
0
LINE
8
MTC_OUTLINE
10
-7.97682271806924
20
2.15354825008333
30
0.0
11
-7.88009013266047
21
2.19174820777505
31
0.0
0
LINE
8
MTC_OUTLINE
10
-7.88009013266047
20
2.19174820777505
30
0.0
11
-7.78396335959467
21
2.22729392816779
31
0.0
0
LINE
8
MTC_OUTLINE
10
-7.78396335959467
20
2.22729392816779
30
0.0
11
-7.68840099318633
21
2.26036682142292
31
0.0
0
LINE
8
MTC_OUTLINE
10
-7.68840099318633
20
2.26036682142292
30
0.0
11
-7.59342535052324
21
2.29086910999012
31
0.0
0
LINE
8
MTC_OUTLINE
10
-7.59342535052324
20
2.29086910999012
30
0.0
11
-7.49900369273935
21
2.31894423221369
31
0.0
0
LINE
8
MTC_OUTLINE
10
-7.49900369273935
20
2.31894423221369
30
0.0
11
-7.40516796312542
21
2.34445223539244
31
0.0
0
LINE
8
MTC_OUTLINE
10
-7.40516796312542
20
2.34445223539244
30
0.0
11
-7.3118912073184
21
2.36751121430705
31
0.0
0
LINE
8
MTC_OUTLINE
10
-7.3118912073184
20
2.36751121430705
30
0.0
11
-7.21917945046954
21
2.38809477104512
31
0.0
0
LINE
8
MTC_OUTLINE
10
-7.21917945046954
20
2.38809477104512
30
0.0
11
-7.12704059622611
21
2.40616827746536
31
0.0
0
LINE
8
MTC_OUTLINE
10
-7.12704059622611
20
2.40616827746536
30
0.0
11
-7.03548328885724
21
2.42169386055018
31
0.0
0
LINE
8
MTC_OUTLINE
10
-7.03548328885724
20
2.42169386055018
30
0.0
11
-6.94451695478791
21
2.43463022043327
31
0.0
0
LINE
8
MTC_OUTLINE
10
-6.94451695478791
20
2.43463022043327
30
0.0
11
-6.85415184794881
21
2.44493243170886
31
0.0
0
LINE
8
MTC_OUTLINE
10
-6.85415184794881
20
2.44493243170886
30
0.0
11
-6.76439909929955
21
2.45255172645652
31
0.0
0
LINE
8
MTC_OUTLINE
10
-6.76439909929955
20
2.45255172645652
30
0.0
11
-6.67529292427636
21
2.4573381970553
31
0.0
0
LINE
8
MTC_OUTLINE
10
-6.67529292427636
20
2.4573381970553
30
0.0
11
-6.58685629062809
21
2.4591912152226
31
0.0
0
LINE
8
MTC_OUTLINE
10
-6.58685629062809
20
2.4591912152226
30
0.0
11
-6.49913529173952
21
2.45790883264462
31
0.0
0
LINE
8
MTC_OUTLINE
10
-6.49913529173952
20
2.45790883264462
30
0.0
11
-6.41218983363837
21
2.45322858386487
31
0.0
0
LINE
8
MTC_OUTLINE
10
-6.41218983363837
20
2.45322858386487
30
0.0
11
-6.32610917339465
21
2.44475940810813
31
0.0
0
LINE
8
MTC_OUTLINE
10
-6.32610917339465
20
2.44475940810813
30
0.0
11
-6.24105026478418
21
2.4318136459518
31
0.0
0
LINE
8
MTC_OUTLINE
10
-6.24105026478418
20
2.4318136459518
30
0.0
11
-6.15733032381498
21
2.41300148325612
31
0.0
0
LINE
8
MTC_OUTLINE
10
-6.15733032381498
20
2.41300148325612
30
0.0
11
-6.07319113676287
21
2.39602615766618
31
0.0
0
LINE
8
MTC_OUTLINE
10
-6.07319113676287
20
2.39602615766618
30
0.0
11
-5.98654639722556
21
2.39002837477226
31
0.0
0
LINE
8
MTC_OUTLINE
10
-5.98654639722556
20
2.39002837477226
30
0.0
11
-5.89650566689688
21
2.39890939969723
31
0.0
0
LINE
8
MTC_OUTLINE
10
-5.89650566689688
20
2.39890939969723
30
0.0
11
-5.80181602589628
21
2.42815863310811
31
0.0
0
LINE
8
MTC_OUTLINE
10
-5.80181602589628
20
2.42815863310811
30
0.0
11
-5.69934382890905
21
2.49150547218951
31
0.0
0
LINE
8
MTC_OUTLINE
10
-5.69934382890905
20
2.49150547218951
30
0.0
11
-5.64180457846072
21
2.55079480483158
31
0.0
0
LINE
8
MTC_OUTLINE
10
-5.64180457846072
20
2.55079480483158
30
0.0
11
-5.6087153601694
21
2.5993648449391
31
0.0
0
LINE
8
MTC_OUTLINE
10
-5.6087153601694
20
2.5993648449391
30
0.0
11
-5.56829360983513
21
2.68006080699264
31
0.0
0
LINE
8
MTC_OUTLINE
10
-5.56829360983513
20
2.68006080699264
30
0.0
11
-5.56713019332287
21
2.68247666627347
31
0.0
0
LINE
8
MTC_OUTLINE
10
-5.56829360983514
20
-2.68006080699262
30
0.0
11
-5.60871536016941
21
-2.59936484493909
31
0.0
0
LINE
8
MTC_OUTLINE
10
-5.60871536016941
20
-2.59936484493909
30
0.0
11
-5.64180457846073
21
-2.55079480483156
31
0.0
0
LINE
8
MTC_OUTLINE
10
-5.64180457846073
20
-2.55079480483156
30
0.0
11
-5.69934382890906
21
-2.49150547218949
31
0.0
0
LINE
8
MTC_OUTLINE
10
-5.69934382890906
20
-2.49150547218949
30
0.0
11
-5.80181602589629
21
-2.42815863310809
31
0.0
0
LINE
8
MTC_OUTLINE
10
-5.80181602589629
20
-2.42815863310809
30
0.0
11
-5.89650566689689
21
-2.39890939969721
31
0.0
0
LINE
8
MTC_OUTLINE
10
-5.89650566689689
20
-2.39890939969721
30
0.0
11
-5.98654639722557
21
-2.39002837477224
31
0.0
0
LINE
8
MTC_OUTLINE
10
-5.98654639722557
20
-2.39002837477224
30
0.0
11
-6.07319113676288
21
-2.39602615766616
31
0.0
0
LINE
8
MTC_OUTLINE
10
-6.07319113676288
20
-2.39602615766616
30
0.0
11
-6.15733032381499
21
-2.4130014832561
31
0.0
0
LINE
8
MTC_OUTLINE
10
-6.15733032381499
20
-2.4130014832561
30
0.0
11
-6.24105026478419
21
-2.43181364595178
31
0.0
0
LINE
8
MTC_OUTLINE
10
-6.24105026478419
20
-2.43181364595178
30
0.0
11
-6.32610917339466
21
-2.44475940810811
31
0.0
0
LINE
8
MTC_OUTLINE
10
-6.32610917339466
20
-2.44475940810811
30
0.0
11
-6.41218983363837
21
-2.45322858386485
31
0.0
0
LINE
8
MTC_OUTLINE
10
-6.41218983363837
20
-2.45322858386485
30
0.0
11
-6.49913529173953
21
-2.4579088326446
31
0.0
0
LINE
8
MTC_OUTLINE
10
-6.49913529173953
20
-2.4579088326446
30
0.0
11
-6.58685629062809
21
-2.45919121522258
31
0.0
0
LINE
8
MTC_OUTLINE
10
-6.58685629062809
20
-2.45919121522258
30
0.0
11
-6.67529292427637
21
-2.45733819705527
31
0.0
0
LINE
8
MTC_OUTLINE
10
-6.67529292427637
20
-2.45733819705527
30
0.0
11
-6.76439909929955
21
-2.4525517264565
31
0.0
0
LINE
8
MTC_OUTLINE
10
-6.76439909929955
20
-2.4525517264565
30
0.0
11
-6.85415184794882
21
-2.44493243170884
31
0.0
0
LINE
8
MTC_OUTLINE
10
-6.85415184794882
20
-2.44493243170884
30
0.0
11
-6.94451695478792
21
-2.43463022043325
31
0.0
0
LINE
8
MTC_OUTLINE
10
-6.94451695478792
20
-2.43463022043325
30
0.0
11
-7.03548328885725
21
-2.42169386055016
31
0.0
0
LINE
8
MTC_OUTLINE
10
-7.03548328885725
20
-2.42169386055016
30
0.0
11
-7.12704059622612
21
-2.40616827746534
31
0.0
0
LINE
8
MTC_OUTLINE
10
-7.12704059622612
20
-2.40616827746534
30
0.0
11
-7.21917945046955
21
-2.38809477104509
31
0.0
0
LINE
8
MTC_OUTLINE
10
-7.21917945046955
20
-2.38809477104509
30
0.0
11
-7.31189120731841
21
-2.36751121430702
31
0.0
0
LINE
8
MTC_OUTLINE
10
-7.31189120731841
20
-2.36751121430702
30
0.0
11
-7.40516796312543
21
-2.34445223539241
31
0.0
0
LINE
8
MTC_OUTLINE
10
-7.40516796312543
20
-2.34445223539241
30
0.0
11
-7.49900369273936
21
-2.31894423221366
31
0.0
0
LINE
8
MTC_OUTLINE
10
-7.49900369273936
20
-2.31894423221366
30
0.0
11
-7.59342535052325
21
-2.29086910999009
31
0.0
0
LINE
8
MTC_OUTLINE
10
-7.59342535052325
20
-2.29086910999009
30
0.0
11
-7.68840099318633
21
-2.26036682142289
31
0.0
0
LINE
8
MTC_OUTLINE
10
-7.68840099318633
20
-2.26036682142289
30
0.0
11
-7.78396335959468
21
-2.22729392816776
31
0.0
0
LINE
8
MTC_OUTLINE
10
-7.78396335959468
20
-2.22729392816776
30
0.0
11
-7.88009013266047
21
-2.19174820777503
31
0.0
0
LINE
8
MTC_OUTLINE
10
-7.88009013266047
20
-2.19174820777503
30
0.0
11
-7.97682271806925
21
-2.15354825008331
31
0.0
0
LINE
8
MTC_OUTLINE
10
-7.97682271806925
20
-2.15354825008331
30
0.0
11
-8.07413470598488
21
-2.11280976414489
31
0.0
0
LINE
8
MTC_OUTLINE
10
-8.07413470598488
20
-2.11280976414489
30
0.0
11
-8.17206736552903
21
-2.06935193812381
31
0.0
0
LINE
8
MTC_OUTLINE
10
-8.17206736552903
20
-2.06935193812381
30
0.0
11
-8.1841392348354
21
-2.02108076419256
31
0.0
0
LINE
8
MTC_OUTLINE
10
-8.1841392348354
20
-2.02108076419256
30
0.0
11
-8.1959259762097
21
-1.9727391776544
31
0.0
0
LINE
8
MTC_OUTLINE
10
-8.1959259762097
20
-1.9727391776544
30
0.0
11
-8.20742717901261
21
-1.92432886268602
31
0.0
0
LINE
8
MTC_OUTLINE
10
-8.20742717901261
20
-1.92432886268602
30
0.0
11
-8.21864244255275
21
-1.87585150585857
31
0.0
0
LINE
8
MTC_OUTLINE
10
-8.21864244255275
20
-1.87585150585857
30
0.0
11
-8.22957137610059
21
-1.82730879607886
31
0.0
0
LINE
8
MTC_OUTLINE
10
-8.22957137610059
20
-1.82730879607886
30
0.0
11
-8.24021359890207
21
-1.77870242453052
31
0.0
0
LINE
8
MTC_OUTLINE
10
-8.24021359890207
20
-1.77870242453052
30
0.0
11
-8.25056874019187
21
-1.73003408461514
31
0.0
0
LINE
8
MTC_OUTLINE
10
-8.25056874019187
20
-1.73003408461514
30
0.0
11
-8.26063643920633
21
-1.68130547189319
31
0.0
0
LINE
8
MTC_OUTLINE
10
-8.26063643920633
20
-1.68130547189319
30
0.0
11
-8.19125780585411
21
-1.59965993507674
31
0.0
0
LINE
8
MTC_OUTLINE
10
-8.19125780585411
20
-1.59965993507674
30
0.0
11
-8.12125850087337
21
-1.52073373834294
31
0.0
0
LINE
8
MTC_OUTLINE
10
-8.12125850087337
20
-1.52073373834294
30
0.0
11
-8.05067979338577
21
-1.44434606985585
31
0.0
0
LINE
8
MTC_OUTLINE
10
-8.05067979338577
20
-1.44434606985585
30
0.0
11
-7.9794952735552
21
-1.37061263866774
31
0.0
0
LINE
8
MTC_OUTLINE
10
-7.9794952735552
20
-1.37061263866774
30
0.0
11
-7.90774634706717
21
-1.29935203461723
31
0.0
0
LINE
8
MTC_OUTLINE
10
-7.90774634706717
20
-1.29935203461723
30
0.0
11
-7.83541069683388
21
-1.23066203525466
31
0.0
0
LINE
8
MTC_OUTLINE
10
-7.83541069683388
20
-1.23066203525466
30
0.0
11
-7.7625210617214
21
-1.16439920223571
31
0.0
0
LINE
8
MTC_OUTLINE
10
-7.7625210617214
20
-1.16439920223571
30
0.0
11
-7.68904549843896
21
-1.10070348826158
31
0.0
0
LINE
8
MTC_OUTLINE
10
-7.68904549843896
20
-1.10070348826158
30
0.0
11
-7.6150109613496
21
-1.0394567985516
31
0.0
0
LINE
8
MTC_OUTLINE
10
-7.6150109613496
20
-1.0394567985516
30
0.0
11
-7.5404114253021
21
-0.980685531018153
31
0.0
0
LINE
8
MTC_OUTLINE
10
-7.5404114253021
20
-0.980685531018153
30
0.0
11
-7.46523898664915
21
-0.92442431380253
31
0.0
0
LINE
8
MTC_OUTLINE
10
-7.46523898664915
20
-0.92442431380253
30
0.0
11
-7.38948500112165
21
-0.870711019922336
31
0.0
0
LINE
8
MTC_OUTLINE
10
-7.38948500112165
20
-0.870711019922336
30
0.0
11
-7.31314004229461
21
-0.819586949243873
31
0.0
0
LINE
8
MTC_OUTLINE
10
-7.31314004229461
20
-0.819586949243873
30
0.0
11
-7.23619385623734
21
-0.771097027172909
31
0.0
0
LINE
8
MTC_OUTLINE
10
-7.23619385623734
20
-0.771097027172909
30
0.0
11
-7.15863531199023
21
-0.725290021629872
31
0.0
0
LINE
8
MTC_OUTLINE
10
-7.15863531199023
20
-0.725290021629872
30
0.0
11
-7.08043019411705
21
-0.68231584023572
31
0.0
0
LINE
8
MTC_OUTLINE
10
-7.08043019411705
20
-0.68231584023572
30
0.0
11
-7.00155553486895
21
-0.642275111273037
31
0.0
0
LINE
8
MTC_OUTLINE
10
-7.00155553486895
20
-0.642275111273037
30
0.0
11
-6.92196524086114
21
-0.605369783055641
31
0.0
0
LINE
8
MTC_OUTLINE
10
-6.92196524086114
20
-0.605369783055641
30
0.0
11
-6.84159940606592
21
-0.571862321040014
31
0.0
0
LINE
8
MTC_OUTLINE
10
-6.84159940606592
20
-0.571862321040014
30
0.0
11
-6.76036877341327
21
-0.542143786001383
31
0.0
0
LINE
8
MTC_OUTLINE
10
-6.76036877341327
20
-0.542143786001383
30
0.0
11
-6.67811638912737
21
-0.516901837362338
31
0.0
0
LINE
8
MTC_OUTLINE
10
-6.67811638912737
20
-0.516901837362338
30
0.0
11
-6.5945250372002
21
-0.497526289262639
31
0.0
0
LINE
8
MTC_OUTLINE
10
-6.5945250372002
20
-0.497526289262639
30
0.0
11
-6.51135293135593
21
-0.476313904057208
31
0.0
0
LINE
8
MTC_OUTLINE
10
-6.51135293135593
20
-0.476313904057208
30
0.0
11
-6.43068637799687
21
-0.444123976155746
31
0.0
0
LINE
8
MTC_OUTLINE
10
-6.43068637799687
20
-0.444123976155746
30
0.0
11
-6.35341581542918
21
-0.3970552404354
31
0.0
0
LINE
8
MTC_OUTLINE
10
-6.35341581542918
20
-0.3970552404354
30
0.0
11
-6.28079416353341
21
-0.32961829622915
31
0.0
0
LINE
8
MTC_OUTLINE
10
-6.28079416353341
20
-0.32961829622915
30
0.0
11
-6.21595506762427
21
-0.228083746352373
31
0.0
0
LINE
8
MTC_OUTLINE
10
-6.21595506762427
20
-0.228083746352373
30
0.0
11
-6.18983867162441
21
-0.149700558312611
31
0.0
0
LINE
8
MTC_OUTLINE
10
-6.18983867162441
20
-0.149700558312611
30
0.0
11
-6.18110006669164
21
-9.15835905062448E-02
31
0.0
0
LINE
8
MTC_OUTLINE
10
-6.18110006669164
20
-9.15835905062448E-02
30
0.0
11
-6.17969399380182
21
-1.34070075386372E-03
31
0.0
0
LINE
8
MTC_OUTLINE
10
-6.17969399380182
20
-1.34070075386372E-03
30
0.0
11
-6.17969399380182
21
1.34070075388369E-03
31
0.0
0
LINE
8
MTC_OUTLINE
10
-3.85402438580106
20
-4.83064340312546
30
0.0
11
-3.92545579018584
21
-4.7754771937265
31
0.0
0
LINE
8
MTC_OUTLINE
10
-3.92545579018584
20
-4.7754771937265
30
0.0
11
-3.97634189634049
21
-4.74607397343357
31
0.0
0
LINE
8
MTC_OUTLINE
10
-3.97634189634049
20
-4.74607397343357
30
0.0
11
-4.0539076470134
21
-4.71762147565489
31
0.0
0
LINE
8
MTC_OUTLINE
10
-4.0539076470134
20
-4.71762147565489
30
0.0
11
-4.17371706972638
21
-4.70500896574693
31
0.0
0
LINE
8
MTC_OUTLINE
10
-4.17371706972638
20
-4.70500896574693
30
0.0
11
-4.27172025513941
21
-4.71974061252676
31
0.0
0
LINE
8
MTC_OUTLINE
10
-4.27172025513941
20
-4.71974061252676
30
0.0
11
-4.35669748231039
21
-4.75080629430218
31
0.0
0
LINE
8
MTC_OUTLINE
10
-4.35669748231039
20
-4.75080629430218
30
0.0
11
-4.43215935473259
21
-4.79380385353135
31
0.0
0
LINE
8
MTC_OUTLINE
10
-4.43215935473259
20
-4.79380385353135
30
0.0
11
-4.50060082509745
21
-4.84560471849488
31
0.0
0
LINE
8
MTC_OUTLINE
10
-4.50060082509745
20
-4.84560471849488
30
0.0
11
-4.56786759404205
21
-4.89887861244802
31
0.0
0
LINE
8
MTC_OUTLINE
10
-4.56786759404205
20
-4.89887861244802
30
0.0
11
-4.63888606694772
21
-4.94744801843531
31
0.0
0
LINE
8
MTC_OUTLINE
10
-4.63888606694772
20
-4.94744801843531
30
0.0
11
-4.71276742431122
21
-4.99242748086118
31
0.0
0
LINE
8
MTC_OUTLINE
10
-4.71276742431122
20
-4.99242748086118
30
0.0
11
-4.78907189142532
21
-5.03436845976599
31
0.0
0
LINE
8
MTC_OUTLINE
10
-4.78907189142532
20
-5.03436845976599
30
0.0
11
-4.8675493755373
21
-5.07358456154239
31
0.0
0
LINE
8
MTC_OUTLINE
10
-4.8675493755373
20
-5.07358456154239
30
0.0
11
-4.94803202368757
21
-5.11028626714427
31
0.0
0
LINE
8
MTC_OUTLINE
10
-4.94803202368757
20
-5.11028626714427
30
0.0
11
-5.0303906850819
21
-5.14463552654516
31
0.0
0
LINE
8
MTC_OUTLINE
10
-5.0303906850819
20
-5.14463552654516
30
0.0
11
-5.11456100551811
21
-5.17671303736217
31
0.0
0
LINE
8
MTC_OUTLINE
10
-5.11456100551811
20
-5.17671303736217
30
0.0
11
-5.20044711547425
21
-5.20663901617342
31
0.0
0
LINE
8
MTC_OUTLINE
10
-5.20044711547425
20
-5.20663901617342
30
0.0
11
-5.28801782669457
21
-5.2344525718146
31
0.0
0
LINE
8
MTC_OUTLINE
10
-5.28801782669457
20
-5.2344525718146
30
0.0
11
-5.37724440830372
21
-5.26018973166388
31
0.0
0
LINE
8
MTC_OUTLINE
10
-5.37724440830372
20
-5.26018973166388
30
0.0
11
-5.46810044804583
21
-5.28388361564255
31
0.0
0
LINE
8
MTC_OUTLINE
10
-5.46810044804583
20
-5.28388361564255
30
0.0
11
-5.56056172521704
21
-5.30556459555258
31
0.0
0
LINE
8
MTC_OUTLINE
10
-5.56056172521704
20
-5.30556459555258
30
0.0
11
-5.6546060942898
21
-5.32526044100721
31
0.0
0
LINE
8
MTC_OUTLINE
10
-5.6546060942898
20
-5.32526044100721
30
0.0
11
-5.75021667316548
21
-5.34299232148851
31
0.0
0
LINE
8
MTC_OUTLINE
10
-5.75021667316548
20
-5.34299232148851
30
0.0
11
-5.84746898629105
21
-5.35866553233548
31
0.0
0
LINE
8
MTC_OUTLINE
10
-5.84746898629105
20
-5.35866553233548
30
0.0
11
-5.9462735305547
21
-5.3723923069004
31
0.0
0
LINE
8
MTC_OUTLINE
10
-5.9462735305547
20
-5.3723923069004
30
0.0
11
-6.04672203822067
21
-5.38405761656225
31
0.0
0
LINE
8
MTC_OUTLINE
10
-6.04672203822067
20
-5.38405761656225
30
0.0
11
-6.1487519781985
21
-5.39373987282832
31
0.0
0
LINE
8
MTC_OUTLINE
10
-6.1487519781985
20
-5.39373987282832
30
0.0
11
-6.25247936664093
21
-5.40129359604456
31
0.0
0
LINE
8
MTC_OUTLINE
10
-6.25247936664093
20
-5.40129359604456
30
0.0
11
-6.35783020483156
21
-5.40681157766636
31
0.0
0
LINE
8
MTC_OUTLINE
10
-6.35783020483156
20
-5.40681157766636
30
0.0
11
-6.46492012627967
21
-5.41014881785939
31
0.0
0
LINE
8
MTC_OUTLINE
10
-6.46492012627967
20
-5.41014881785939
30
0.0
11
-6.49674058213899
21
-5.37189578072302
31
0.0
0
LINE
8
MTC_OUTLINE
10
-6.49674058213899
20
-5.37189578072302
30
0.0
11
-6.52833469749329
21
-5.33345559164662
31
0.0
0
LINE
8
MTC_OUTLINE
10
-6.52833469749329
20
-5.33345559164662
30
0.0
11
-6.55970137163249
21
-5.29482958985124
31
0.0
0
LINE
8
MTC_OUTLINE
10
-6.55970137163249
20
-5.29482958985124
30
0.0
11
-6.59083951177031
21
-5.25601912103149
31
0.0
0
LINE
8
MTC_OUTLINE
10
-6.59083951177031
20
-5.25601912103149
30
0.0
11
-6.62174803308241
21
-5.21702553730865
31
0.0
0
LINE
8
MTC_OUTLINE
10
-6.62174803308241
20
-5.21702553730865
30
0.0
11
-6.65242585874415
21
-5.17785019718353
31
0.0
0
LINE
8
MTC_OUTLINE
10
-6.65242585874415
20
-5.17785019718353
30
0.0
11
-6.68287191996812
21
-5.13849446548918
31
0.0
0
LINE
8
MTC_OUTLINE
10
-6.68287191996812
20
-5.13849446548918
30
0.0
11
-6.71308515604137
21
-5.09895971334334
31
0.0
0
LINE
8
MTC_OUTLINE
10
-6.71308515604137
20
-5.09895971334334
30
0.0
11
-6.68600183808958
21
-4.99529736561481
31
0.0
0
LINE
8
MTC_OUTLINE
10
-6.68600183808958
20
-4.99529736561481
30
0.0
11
-6.65717943688032
21
-4.89381575931505
31
0.0
0
LINE
8
MTC_OUTLINE
10
-6.65717943688032
20
-4.89381575931505
30
0.0
11
-6.62673358592286
21
-4.79436989460971
31
0.0
0
LINE
8
MTC_OUTLINE
10
-6.62673358592286
20
-4.79436989460971
30
0.0
11
-6.59459028650079
21
-4.69705256295423
31
0.0
0
LINE
8
MTC_OUTLINE
10
-6.59459028650079
20
-4.69705256295423
30
0.0
11
-6.56086555476686
21
-4.60171828469451
31
0.0
0
LINE
8
MTC_OUTLINE
10
-6.56086555476686
20
-4.60171828469451
30
0.0
11
-6.52549685963061
21
-4.50844547133787
31
0.0
0
LINE
8
MTC_OUTLINE
10
-6.52549685963061
20
-4.50844547133787
30
0.0
11
-6.48857593335629
21
-4.41711909426326
31
0.0
0
LINE
8
MTC_OUTLINE
10
-6.48857593335629
20
-4.41711909426326
30
0.0
11
-6.45001327283207
21
-4.327851386823
31
0.0
0
LINE
8
MTC_OUTLINE
10
-6.45001327283207
20
-4.327851386823
30
0.0
11
-6.40988440250493
21
-4.24054764435606
31
0.0
0
LINE
8
MTC_OUTLINE
10
-6.40988440250493
20
-4.24054764435606
30
0.0
11
-6.36817244027625
21
-4.15522903634453
31
0.0
0
LINE
8
MTC_OUTLINE
10
-6.36817244027625
20
-4.15522903634453
30
0.0
11
-6.32485524061846
21
-4.07192333240164
31
0.0
0
LINE
8
MTC_OUTLINE
10
-6.32485524061846
20
-4.07192333240164
30
0.0
11
-6.27990858282771
21
-3.99066090432936
31
0.0
0
LINE
8
MTC_OUTLINE
10
-6.27990858282771
20
-3.99066090432936
30
0.0
11
-6.23330605464814
21
-3.91147487204897
31
0.0
0
LINE
8
MTC_OUTLINE
10
-6.23330605464814
20
-3.91147487204897
30
0.0
11
-6.18501892520438
21
-3.83440126293865
31
0.0
0
LINE
8
MTC_OUTLINE
10
-6.18501892520438
20
-3.83440126293865
30
0.0
11
-6.1350160062407
21
-3.75947918583409
31
0.0
0
LINE
8
MTC_OUTLINE
10
-6.1350160062407
20
-3.75947918583409
30
0.0
11
-6.08320142823513
21
-3.68682885731342
31
0.0
0
LINE
8
MTC_OUTLINE
10
-6.08320142823513
20
-3.68682885731342
30
0.0
11
-6.0295108369855
21
-3.61653097499374
31
0.0
0
LINE
8
MTC_OUTLINE
10
-6.0295108369855
20
-3.61653097499374
30
0.0
11
-5.97381508169759
21
-3.54874748884857
31
0.0
0
LINE
8
MTC_OUTLINE
10
-5.97381508169759
20
-3.54874748884857
30
0.0
11
-5.91594630941179
21
-3.48368887983182
31
0.0
0
LINE
8
MTC_OUTLINE
10
-5.91594630941179
20
-3.48368887983182
30
0.0
11
-5.85565442737539
21
-3.42166875433612
31
0.0
0
LINE
8
MTC_OUTLINE
10
-5.85565442737539
20
-3.42166875433612
30
0.0
11
-5.79249966088117
21
-3.36323857240185
31
0.0
0
LINE
8
MTC_OUTLINE
10
-5.79249966088117
20
-3.36323857240185
30
0.0
11
-5.72559319042586
21
-3.30951287843342
31
0.0
0
LINE
8
MTC_OUTLINE
10
-5.72559319042586
20
-3.30951287843342
30
0.0
11
-5.65986142139083
21
-3.25431415547539
31
0.0
0
LINE
8
MTC_OUTLINE
10
-5.65986142139083
20
-3.25431415547539
30
0.0
11
-5.60115005441314
21
-3.19031212678299
31
0.0
0
LINE
8
MTC_OUTLINE
10
-5.60115005441314
20
-3.19031212678299
30
0.0
11
-5.55195404218422
21
-3.11437822063685
31
0.0
0
LINE
8
MTC_OUTLINE
10
-5.55195404218422
20
-3.11437822063685
30
0.0
11
-5.51578398819735
21
-3.02211027949511
31
0.0
0
LINE
8
MTC_OUTLINE
10
-5.51578398819735
20
-3.02211027949511
30
0.0
11
-5.50142017151043
21
-2.90249818166559
31
0.0
0
LINE
8
MTC_OUTLINE
10
-5.50142017151043
20
-2.90249818166559
30
0.0
11
-5.5118993024834
21
-2.82054588992613
31
0.0
0
LINE
8
MTC_OUTLINE
10
-5.5118993024834
20
-2.82054588992613
30
0.0
11
-5.52924209878808
21
-2.7643927726528
31
0.0
0
LINE
8
MTC_OUTLINE
10
-5.52924209878808
20
-2.7643927726528
30
0.0
11
-5.56713019332288
21
-2.68247666627345
31
0.0
0
LINE
8
MTC_OUTLINE
10
-5.56713019332288
20
-2.68247666627345
30
0.0
11
-5.56829360983514
21
-2.68006080699262
31
0.0
0
LINE
8
MTC_OUTLINE
10
-1.37641836565186
20
-6.02445782931585
30
0.0
11
-1.46471155840006
21
-6.00574771691208
31
0.0
0
LINE
8
MTC_OUTLINE
10
-1.46471155840006
20
-6.00574771691208
30
0.0
11
-1.52331593501697
21
-6.00133498481959
31
0.0
0
LINE
8
MTC_OUTLINE
10
-1.52331593501697
20
-6.00133498481959
30
0.0
11
-1.60554533771219
21
-6.00935468803636
31
0.0
0
LINE
8
MTC_OUTLINE
10
-1.60554533771219
20
-6.00935468803636
30
0.0
11
-1.71896226061647
21
-6.0499745695714
31
0.0
0
LINE
8
MTC_OUTLINE
10
-1.71896226061647
20
-6.0499745695714
30
0.0
11
-1.80086825764069
21
-6.1057693132254
31
0.0
0
LINE
8
MTC_OUTLINE
10
-1.80086825764069
20
-6.1057693132254
30
0.0
11
-1.86395119963545
21
-6.17062876243001
31
0.0
0
LINE
8
MTC_OUTLINE
10
-1.86395119963545
20
-6.17062876243001
30
0.0
11
-1.9132840556302
21
-6.24210990405864
31
0.0
0
LINE
8
MTC_OUTLINE
10
-1.9132840556302
20
-6.24210990405864
30
0.0
11
-1.95247213672251
21
-6.3184765117938
31
0.0
0
LINE
8
MTC_OUTLINE
10
-1.95247213672251
20
-6.3184765117938
30
0.0
11
-1.98996272508023
21
-6.39566058894555
31
0.0
0
LINE
8
MTC_OUTLINE
10
-1.98996272508023
20
-6.39566058894555
30
0.0
11
-2.03287468273773
21
-6.47023387224334
31
0.0
0
LINE
8
MTC_OUTLINE
10
-2.03287468273773
20
-6.47023387224334
30
0.0
11
-2.07992362829978
21
-6.542814887168
31
0.0
0
LINE
8
MTC_OUTLINE
10
-2.07992362829978
20
-6.542814887168
30
0.0
11
-2.130474068902
21
-6.61370967095342
31
0.0
0
LINE
8
MTC_OUTLINE
10
-2.130474068902
20
-6.61370967095342
30
0.0
11
-2.18416461004584
21
-6.68309226201749
31
0.0
0
LINE
8
MTC_OUTLINE
10
-2.18416461004584
20
-6.68309226201749
30
0.0
11
-2.24075269717704
21
-6.75107946847723
31
0.0
0
LINE
8
MTC_OUTLINE
10
-2.24075269717704
20
-6.75107946847723
30
0.0
11
-2.30005170199067
21
-6.81776116578743
31
0.0
0
LINE
8
MTC_OUTLINE
10
-2.30005170199067
20
-6.81776116578743
30
0.0
11
-2.36196862997021
21
-6.88318213774694
31
0.0
0
LINE
8
MTC_OUTLINE
10
-2.36196862997021
20
-6.88318213774694
30
0.0
11
-2.42636494564255
21
-6.94740909952341
31
0.0
0
LINE
8
MTC_OUTLINE
10
-2.42636494564255
20
-6.94740909952341
30
0.0
11
-2.49319558067239
21
-7.01046375488325
31
0.0
0
LINE
8
MTC_OUTLINE
10
-2.49319558067239
20
-7.01046375488325
30
0.0
11
-2.56241901774191
21
-7.07236609751293
31
0.0
0
LINE
8
MTC_OUTLINE
10
-2.56241901774191
20
-7.07236609751293
30
0.0
11
-2.63399709003557
21
-7.13313450758212
31
0.0
0
LINE
8
MTC_OUTLINE
10
-2.63399709003557
20
-7.13313450758212
30
0.0
11
-2.70789479762223
21
-7.19278584016932
31
0.0
0
LINE
8
MTC_OUTLINE
10
-2.70789479762223
20
-7.19278584016932
30
0.0
11
-2.78408013928738
21
-7.25133550624719
31
0.0
0
LINE
8
MTC_OUTLINE
10
-2.78408013928738
20
-7.25133550624719
30
0.0
11
-2.86252871969168
21
-7.30879525399199
31
0.0
0
LINE
8
MTC_OUTLINE
10
-2.86252871969168
20
-7.30879525399199
30
0.0
11
-2.94334967482306
21
-7.36511252628192
31
0.0
0
LINE
8
MTC_OUTLINE
10
-2.94334967482306
20
-7.36511252628192
30
0.0
11
-3.02641366893764
21
-7.42034960792856
31
0.0
0
LINE
8
MTC_OUTLINE
10
-3.02641366893764
20
-7.42034960792856
30
0.0
11
-3.11185325899789
21
-7.47444266286321
31
0.0
0
LINE
8
MTC_OUTLINE
10
-3.11185325899789
20
-7.47444266286321
30
0.0
11
-3.19957808496005
21
-7.52743520618952
31
0.0
0
LINE
8
MTC_OUTLINE
10
-3.19957808496005
20
-7.52743520618952
30
0.0
11
-3.28975579502218
21
-7.5792465027904
31
0.0
0
LINE
8
MTC_OUTLINE
10
-3.28975579502218
20
-7.5792465027904
30
0.0
11
-3.38227945794092
21
-7.62992804803862
31
0.0
0
LINE
8
MTC_OUTLINE
10
-3.38227945794092
20
-7.62992804803862
30
0.0
11
-3.4773161689785
21
-7.67939937309697
31
0.0
0
LINE
8
MTC_OUTLINE
10
-3.4773161689785
20
-7.67939937309697
30
0.0
11
-3.52258277985553
21
-7.65874095590304
31
0.0
0
LINE
8
MTC_OUTLINE
10
-3.52258277985553
20
-7.65874095590304
30
0.0
11
-3.56772666716754
21
-7.63781571517296
31
0.0
0
LINE
8
MTC_OUTLINE
10
-3.56772666716754
20
-7.63781571517296
30
0.0
11
-3.61274625814273
21
-7.61662437992298
31
0.0
0
LINE
8
MTC_OUTLINE
10
-3.61274625814273
20
-7.61662437992298
30
0.0
11
-3.65763998433971
21
-7.59516768843986
31
0.0
0
LINE
8
MTC_OUTLINE
10
-3.65763998433971
20
-7.59516768843986
30
0.0
11
-3.70240628170207
21
-7.57344638825511
31
0.0
0
LINE
8
MTC_OUTLINE
10
-3.70240628170207
20
-7.57344638825511
30
0.0
11
-3.74704359061293
21
-7.55146123611901
31
0.0
0
LINE
8
MTC_OUTLINE
10
-3.74704359061293
20
-7.55146123611901
30
0.0
11
-3.79155035594922
21
-7.52921299797414
31
0.0
0
LINE
8
MTC_OUTLINE
10
-3.79155035594922
20
-7.52921299797414
30
0.0
11
-3.83592502713593
21
-7.5067024489288
31
0.0
0
LINE
8
MTC_OUTLINE
10
-3.83592502713593
20
-7.5067024489288
30
0.0
11
-3.85650120786003
21
-7.40155488959109
31
0.0
0
LINE
8
MTC_OUTLINE
10
-3.85650120786003
20
-7.40155488959109
30
0.0
11
-3.87456434046529
21
-7.29761755044325
31
0.0
0
LINE
8
MTC_OUTLINE
10
-3.87456434046529
20
-7.29761755044325
30
0.0
11
-3.89028152021394
21
-7.19480996264807
31
0.0
0
LINE
8
MTC_OUTLINE
10
-3.89028152021394
20
-7.19480996264807
30
0.0
11
-3.90354581586262
21
-7.09318362157832
31
0.0
0
LINE
8
MTC_OUTLINE
10
-3.90354581586262
20
-7.09318362157832
30
0.0
11
-3.91452487560939
21
-6.99265779211691
31
0.0
0
LINE
8
MTC_OUTLINE
10
-3.91452487560939
20
-6.99265779211691
30
0.0
11
-3.92312833941049
21
-6.89327598936748
31
0.0
0
LINE
8
MTC_OUTLINE
10
-3.92312833941049
20
-6.89327598936748
30
0.0
11
-3.9294887642284
21
-6.79497437726135
31
0.0
0
LINE
8
MTC_OUTLINE
10
-3.9294887642284
20
-6.79497437726135
30
0.0
11
-3.93347681431922
21
-6.69781524061009
31
0.0
0
LINE
8
MTC_OUTLINE
10
-3.93347681431922
20
-6.69781524061009
30
0.0
11
-3.93520162567089
21
-6.6017460222919
31
0.0
0
LINE
8
MTC_OUTLINE
10
-3.93520162567089
20
-6.6017460222919
30
0.0
11
-3.93463880294407
21
-6.50677847048304
31
0.0
0
LINE
8
MTC_OUTLINE
10
-3.93463880294407
20
-6.50677847048304
30
0.0
11
-3.93175634492425
21
-6.41292799615617
31
0.0
0
LINE
8
MTC_OUTLINE
10
-3.93175634492425
20
-6.41292799615617
30
0.0
11
-3.9265192516803
21
-6.3202114543898
31
0.0
0
LINE
8
MTC_OUTLINE
10
-3.9265192516803
20
-6.3202114543898
30
0.0
11
-3.91888935639666
21
-6.22864722535357
31
0.0
0
LINE
8
MTC_OUTLINE
10
-3.91888935639666
20
-6.22864722535357
30
0.0
11
-3.90882514175552
21
-6.13825530273398
31
0.0
0
LINE
8
MTC_OUTLINE
10
-3.90882514175552
20
-6.13825530273398
30
0.0
11
-3.89628153942158
21
-6.04905739029743
31
0.0
0
LINE
8
MTC_OUTLINE
10
-3.89628153942158
20
-6.04905739029743
30
0.0
11
-3.88112001392173
21
-5.96112020321157
31
0.0
0
LINE
8
MTC_OUTLINE
10
-3.88112001392173
20
-5.96112020321157
30
0.0
11
-3.86324757073945
21
-5.87448852527525
31
0.0
0
LINE
8
MTC_OUTLINE
10
-3.86324757073945
20
-5.87448852527525
30
0.0
11
-3.84247758156981
21
-5.78925223194326
31
0.0
0
LINE
8
MTC_OUTLINE
10
-3.84247758156981
20
-5.78925223194326
30
0.0
11
-3.81856749185855
21
-5.70552813133262
31
0.0
0
LINE
8
MTC_OUTLINE
10
-3.81856749185855
20
-5.70552813133262
30
0.0
11
-3.79115590710712
21
-5.62349026186121
31
0.0
0
LINE
8
MTC_OUTLINE
10
-3.79115590710712
20
-5.62349026186121
30
0.0
11
-3.75960733445114
21
-5.54344466076295
31
0.0
0
LINE
8
MTC_OUTLINE
10
-3.75960733445114
20
-5.54344466076295
30
0.0
11
-3.72263739249539
21
-5.46600985351864
31
0.0
0
LINE
8
MTC_OUTLINE
10
-3.72263739249539
20
-5.46600985351864
30
0.0
11
-3.68736494327422
21
-5.38775757685774
31
0.0
0
LINE
8
MTC_OUTLINE
10
-3.68736494327422
20
-5.38775757685774
30
0.0
11
-3.66223726895549
21
-5.30461983409031
31
0.0
0
LINE
8
MTC_OUTLINE
10
-3.66223726895549
20
-5.30461983409031
30
0.0
11
-3.65085968063678
21
-5.21486039889886
31
0.0
0
LINE
8
MTC_OUTLINE
10
-3.65085968063678
20
-5.21486039889886
30
0.0
11
-3.65830514734752
21
-5.1160362581568
31
0.0
0
LINE
8
MTC_OUTLINE
10
-3.65830514734752
20
-5.1160362581568
30
0.0
11
-3.69726153993831
21
-5.00203725529578
31
0.0
0
LINE
8
MTC_OUTLINE
10
-3.69726153993831
20
-5.00203725529578
30
0.0
11
-3.74226067747679
21
-4.93274751631452
31
0.0
0
LINE
8
MTC_OUTLINE
10
-3.74226067747679
20
-4.93274751631452
30
0.0
11
-3.78224992151534
21
-4.88968006312301
31
0.0
0
LINE
8
MTC_OUTLINE
10
-3.78224992151534
20
-4.88968006312301
30
0.0
11
-3.85192798168517
21
-4.83231522962023
31
0.0
0
LINE
8
MTC_OUTLINE
10
-3.85192798168517
20
-4.83231522962023
30
0.0
11
-3.85402438580106
21
-4.83064340312546
31
0.0
0
LINE
8
MTC_OUTLINE
10
1.37380419247815
20
-6.02505449728367
30
0.0
11
1.28613676103526
21
-6.04650624910114
31
0.0
0
LINE
8
MTC_OUTLINE
10
1.28613676103526
20
-6.04650624910114
30
0.0
11
1.23142142948058
21
-6.06795800091861
31
0.0
0
LINE
8
MTC_OUTLINE
10
1.23142142948058
20
-6.06795800091861
30
0.0
11
1.16081491644428
21
-6.11086150455354
31
0.0
0
LINE
8
MTC_OUTLINE
10
1.16081491644428
20
-6.11086150455354
30
0.0
11
1.07625410589717
21
-6.19666851182341
31
0.0
0
LINE
8
MTC_OUTLINE
10
1.07625410589717
20
-6.19666851182341
30
0.0
11
1.02666778448355
21
-6.28247551909329
31
0.0
0
LINE
8
MTC_OUTLINE
10
1.02666778448355
20
-6.28247551909329
30
0.0
11
0.997973477988571
21
-6.36828252636316
31
0.0
0
LINE
8
MTC_OUTLINE
10
0.997973477988571
20
-6.36828252636316
30
0.0
11
0.984540615578807
21
-6.45408953363303
31
0.0
0
LINE
8
MTC_OUTLINE
10
0.984540615578807
20
-6.45408953363303
30
0.0
11
0.982367603829659
21
-6.5398965409029
31
0.0
0
LINE
8
MTC_OUTLINE
10
0.982367603829659
20
-6.5398965409029
30
0.0
11
0.982078666874945
21
-6.62570354817277
31
0.0
0
LINE
8
MTC_OUTLINE
10
0.982078666874945
20
-6.62570354817277
30
0.0
11
0.975772463960313
21
-6.71151055544264
31
0.0
0
LINE
8
MTC_OUTLINE
10
0.975772463960313
20
-6.71151055544264
30
0.0
11
0.964874550885727
21
-6.79731756271251
31
0.0
0
LINE
8
MTC_OUTLINE
10
0.964874550885727
20
-6.79731756271251
30
0.0
11
0.950090271517129
21
-6.88312456998238
31
0.0
0
LINE
8
MTC_OUTLINE
10
0.950090271517129
20
-6.88312456998238
30
0.0
11
0.931820743486235
21
-6.96893157725225
31
0.0
0
LINE
8
MTC_OUTLINE
10
0.931820743486235
20
-6.96893157725225
30
0.0
11
0.910335182037781
21
-7.05473858452212
31
0.0
0
LINE
8
MTC_OUTLINE
10
0.910335182037781
20
-7.05473858452212
30
0.0
11
0.885840728962762
21
-7.14054559179199
31
0.0
0
LINE
8
MTC_OUTLINE
10
0.885840728962762
20
-7.14054559179199
30
0.0
11
0.858440600387546
21
-7.22635259906186
31
0.0
0
LINE
8
MTC_OUTLINE
10
0.858440600387546
20
-7.22635259906186
30
0.0
11
0.82828855908688
21
-7.31215960633174
31
0.0
0
LINE
8
MTC_OUTLINE
10
0.82828855908688
20
-7.31215960633174
30
0.0
11
0.795434627139141
21
-7.39796661360161
31
0.0
0
LINE
8
MTC_OUTLINE
10
0.795434627139141
20
-7.39796661360161
30
0.0
11
0.759924885290604
21
-7.48377362087148
31
0.0
0
LINE
8
MTC_OUTLINE
10
0.759924885290604
20
-7.48377362087148
30
0.0
11
0.721801695510597
21
-7.56958062814135
31
0.0
0
LINE
8
MTC_OUTLINE
10
0.721801695510597
20
-7.56958062814135
30
0.0
11
0.68110390479193
21
-7.65538763541122
31
0.0
0
LINE
8
MTC_OUTLINE
10
0.68110390479193
20
-7.65538763541122
30
0.0
11
0.637867031803078
21
-7.74119464268109
31
0.0
0
LINE
8
MTC_OUTLINE
10
0.637867031803078
20
-7.74119464268109
30
0.0
11
0.592118153327926
21
-7.82700164995096
31
0.0
0
LINE
8
MTC_OUTLINE
10
0.592118153327926
20
-7.82700164995096
30
0.0
11
0.543736137558475
21
-7.91280865722083
31
0.0
0
LINE
8
MTC_OUTLINE
10
0.543736137558475
20
-7.91280865722083
30
0.0
11
0.492864536340393
21
-7.9986156644907
31
0.0
0
LINE
8
MTC_OUTLINE
10
0.492864536340393
20
-7.9986156644907
30
0.0
11
0.439356222545098
21
-8.08442267176057
31
0.0
0
LINE
8
MTC_OUTLINE
10
0.439356222545098
20
-8.08442267176057
30
0.0
11
0.383311488254807
21
-8.17022967903044
31
0.0
0
LINE
8
MTC_OUTLINE
10
0.383311488254807
20
-8.17022967903044
30
0.0
11
0.32454425800781
21
-8.25603668630031
31
0.0
0
LINE
8
MTC_OUTLINE
10
0.32454425800781
20
-8.25603668630031
30
0.0
11
0.263173216530285
21
-8.34184369357018
31
0.0
0
LINE
8
MTC_OUTLINE
10
0.263173216530285
20
-8.34184369357018
30
0.0
11
0.199012902073006
21
-8.42765070084005
31
0.0
0
LINE
8
MTC_OUTLINE
10
0.199012902073006
20
-8.42765070084005
30
0.0
11
0.149265743620995
21
-8.4286785564727
31
0.0
0
LINE
8
MTC_OUTLINE
10
0.149265743620995
20
-8.4286785564727
30
0.0
11
9.95133848868799E-02
21
-8.42941276464676
31
0.0
0
LINE
8
MTC_OUTLINE
10
9.95133848868799E-02
20
-8.42941276464676
30
0.0
11
4.97575591973727E-02
21
-8.4298532997831
31
0.0
0
LINE
8
MTC_OUTLINE
10
4.97575591973727E-02
20
-8.4298532997831
30
0.0
11
-2.72380479029879E-14
21
-8.43000014653389
31
0.0
0
LINE
8
MTC_OUTLINE
10
-2.72380479029879E-14
20
-8.43000014653389
30
0.0
11
-4.97575591974272E-02
21
-8.4298532997831
31
0.0
0
LINE
8
MTC_OUTLINE
10
-4.97575591974272E-02
20
-8.4298532997831
30
0.0
11
-9.95133848869344E-02
21
-8.42941276464676
31
0.0
0
LINE
8
MTC_OUTLINE
10
-9.95133848869344E-02
20
-8.42941276464676
30
0.0
11
-0.14926574362105
21
-8.4286785564727
31
0.0
0
LINE
8
MTC_OUTLINE
10
-0.14926574362105
20
-8.4286785564727
30
0.0
11
-0.19901290207306
21
-8.42765070084005
31
0.0
0
LINE
8
MTC_OUTLINE
10
-0.19901290207306
20
-8.42765070084005
30
0.0
11
-0.263173216530339
21
-8.34184369357018
31
0.0
0
LINE
8
MTC_OUTLINE
10
-0.263173216530339
20
-8.34184369357018
30
0.0
11
-0.324544258007864
21
-8.25603668630031
31
0.0
0
LINE
8
MTC_OUTLINE
10
-0.324544258007864
20
-8.25603668630031
30
0.0
11
-0.38331148825486
21
-8.17022967903044
31
0.0
0
LINE
8
MTC_OUTLINE
10
-0.38331148825486
20
-8.17022967903044
30
0.0
11
-0.43935622254515
21
-8.08442267176057
31
0.0
0
LINE
8
MTC_OUTLINE
10
-0.43935622254515
20
-8.08442267176057
30
0.0
11
-0.492864536340445
21
-7.9986156644907
31
0.0
0
LINE
8
MTC_OUTLINE
10
-0.492864536340445
20
-7.9986156644907
30
0.0
11
-0.543736137558526
21
-7.91280865722083
31
0.0
0
LINE
8
MTC_OUTLINE
10
-0.543736137558526
20
-7.91280865722083
30
0.0
11
-0.592118153327976
21
-7.82700164995096
31
0.0
0
LINE
8
MTC_OUTLINE
10
-0.592118153327976
20
-7.82700164995096
30
0.0
11
-0.637867031803128
21
-7.74119464268109
31
0.0
0
LINE
8
MTC_OUTLINE
10
-0.637867031803128
20
-7.74119464268109
30
0.0
11
-0.68110390479198
21
-7.65538763541121
31
0.0
0
LINE
8
MTC_OUTLINE
10
-0.68110390479198
20
-7.65538763541121
30
0.0
11
-0.721801695510646
21
-7.56958062814134
31
0.0
0
LINE
8
MTC_OUTLINE
10
-0.721801695510646
20
-7.56958062814134
30
0.0
11
-0.759924885290652
21
-7.48377362087147
31
0.0
0
LINE
8
MTC_OUTLINE
10
-0.759924885290652
20
-7.48377362087147
30
0.0
11
-0.795434627139189
21
-7.3979666136016
31
0.0
0
LINE
8
MTC_OUTLINE
10
-0.795434627139189
20
-7.3979666136016
30
0.0
11
-0.828288559086928
21
-7.31215960633173
31
0.0
0
LINE
8
MTC_OUTLINE
10
-0.828288559086928
20
-7.31215960633173
30
0.0
11
-0.858440600387593
21
-7.22635259906186
31
0.0
0
LINE
8
MTC_OUTLINE
10
-0.858440600387593
20
-7.22635259906186
30
0.0
11
-0.885840728962808
21
-7.14054559179199
31
0.0
0
LINE
8
MTC_OUTLINE
10
-0.885840728962808
20
-7.14054559179199
30
0.0
11
-0.910335182037827
21
-7.05473858452212
31
0.0
0
LINE
8
MTC_OUTLINE
10
-0.910335182037827
20
-7.05473858452212
30
0.0
11
-0.931820743486281
21
-6.96893157725225
31
0.0
0
LINE
8
MTC_OUTLINE
10
-0.931820743486281
20
-6.96893157725225
30
0.0
11
-0.950090271517174
21
-6.88312456998237
31
0.0
0
LINE
8
MTC_OUTLINE
10
-0.950090271517174
20
-6.88312456998237
30
0.0
11
-0.964874550885771
21
-6.7973175627125
31
0.0
0
LINE
8
MTC_OUTLINE
10
-0.964874550885771
20
-6.7973175627125
30
0.0
11
-0.975772463960356
21
-6.71151055544263
31
0.0
0
LINE
8
MTC_OUTLINE
10
-0.975772463960356
20
-6.71151055544263
30
0.0
11
-0.982078666874987
21
-6.62570354817276
31
0.0
0
LINE
8
MTC_OUTLINE
10
-0.982078666874987
20
-6.62570354817276
30
0.0
11
-0.982367603829702
21
-6.53989654090289
31
0.0
0
LINE
8
MTC_OUTLINE
10
-0.982367603829702
20
-6.53989654090289
30
0.0
11
-0.984540615578848
21
-6.45408953363302
31
0.0
0
LINE
8
MTC_OUTLINE
10
-0.984540615578848
20
-6.45408953363302
30
0.0
11
-0.997973477988612
21
-6.36828252636315
31
0.0
0
LINE
8
MTC_OUTLINE
10
-0.997973477988612
20
-6.36828252636315
30
0.0
11
-1.02666778448359
21
-6.28247551909328
31
0.0
0
LINE
8
MTC_OUTLINE
10
-1.02666778448359
20
-6.28247551909328
30
0.0
11
-1.07625410589721
21
-6.19666851182341
31
0.0
0
LINE
8
MTC_OUTLINE
10
-1.07625410589721
20
-6.19666851182341
30
0.0
11
-1.16081491644432
21
-6.11086150455354
31
0.0
0
LINE
8
MTC_OUTLINE
10
-1.16081491644432
20
-6.11086150455354
30
0.0
11
-1.23142142948062
21
-6.0679580009186
31
0.0
0
LINE
8
MTC_OUTLINE
10
-1.23142142948062
20
-6.0679580009186
30
0.0
11
-1.2861367610353
21
-6.04650624910113
31
0.0
0
LINE
8
MTC_OUTLINE
10
-1.2861367610353
20
-6.04650624910113
30
0.0
11
-1.37380419247819
21
-6.02505449728366
31
0.0
0
LINE
8
MTC_OUTLINE
10
-1.37380419247819
20
-6.02505449728366
30
0.0
11
-1.37641836565186
21
-6.02445782931585
31
0.0
0
LINE
8
MTC_OUTLINE
10
3.85192798168513
20
-4.83231522962025
30
0.0
11
3.78224992151531
21
-4.88968006312303
31
0.0
0
LINE
8
MTC_OUTLINE
10
3.78224992151531
20
-4.88968006312303
30
0.0
11
3.74226067747676
21
-4.93274751631455
31
0.0
0
LINE
8
MTC_OUTLINE
10
3.74226067747676
20
-4.93274751631455
30
0.0
11
3.69726153993828
21
-5.0020372552958
31
0.0
0
LINE
8
MTC_OUTLINE
10
3.69726153993828
20
-5.0020372552958
30
0.0
11
3.65830514734748
21
-5.11603625815682
31
0.0
0
LINE
8
MTC_OUTLINE
10
3.65830514734748
20
-5.11603625815682
30
0.0
11
3.65085968063674
21
-5.21486039889888
31
0.0
0
LINE
8
MTC_OUTLINE
10
3.65085968063674
20
-5.21486039889888
30
0.0
11
3.66223726895546
21
-5.30461983409034
31
0.0
0
LINE
8
MTC_OUTLINE
10
3.66223726895546
20
-5.30461983409034
30
0.0
11
3.68736494327418
21
-5.38775757685777
31
0.0
0
LINE
8
MTC_OUTLINE
10
3.68736494327418
20
-5.38775757685777
30
0.0
11
3.72263739249535
21
-5.46600985351866
31
0.0
0
LINE
8
MTC_OUTLINE
10
3.72263739249535
20
-5.46600985351866
30
0.0
11
3.75960733445111
21
-5.54344466076298
31
0.0
0
LINE
8
MTC_OUTLINE
10
3.75960733445111
20
-5.54344466076298
30
0.0
11
3.79115590710709
21
-5.62349026186124
31
0.0
0
LINE
8
MTC_OUTLINE
10
3.79115590710709
20
-5.62349026186124
30
0.0
11
3.81856749185852
21
-5.70552813133265
31
0.0
0
LINE
8
MTC_OUTLINE
10
3.81856749185852
20
-5.70552813133265
30
0.0
11
3.84247758156978
21
-5.78925223194329
31
0.0
0
LINE
8
MTC_OUTLINE
10
3.84247758156978
20
-5.78925223194329
30
0.0
11
3.86324757073941
21
-5.87448852527527
31
0.0
0
LINE
8
MTC_OUTLINE
10
3.86324757073941
20
-5.87448852527527
30
0.0
11
3.88112001392169
21
-5.9611202032116
31
0.0
0
LINE
8
MTC_OUTLINE
10
3.88112001392169
20
-5.9611202032116
30
0.0
11
3.89628153942154
21
-6.04905739029746
31
0.0
0
LINE
8
MTC_OUTLINE
10
3.89628153942154
20
-6.04905739029746
30
0.0
11
3.90882514175548
21
-6.13825530273401
31
0.0
0
LINE
8
MTC_OUTLINE
10
3.90882514175548
20
-6.13825530273401
30
0.0
11
3.91888935639661
21
-6.22864722535359
31
0.0
0
LINE
8
MTC_OUTLINE
10
3.91888935639661
20
-6.22864722535359
30
0.0
11
3.92651925168026
21
-6.32021145438982
31
0.0
0
LINE
8
MTC_OUTLINE
10
3.92651925168026
20
-6.32021145438982
30
0.0
11
3.93175634492421
21
-6.4129279961562
31
0.0
0
LINE
8
MTC_OUTLINE
10
3.93175634492421
20
-6.4129279961562
30
0.0
11
3.93463880294403
21
-6.50677847048306
31
0.0
0
LINE
8
MTC_OUTLINE
10
3.93463880294403
20
-6.50677847048306
30
0.0
11
3.93520162567084
21
-6.60174602229193
31
0.0
0
LINE
8
MTC_OUTLINE
10
3.93520162567084
20
-6.60174602229193
30
0.0
11
3.93347681431917
21
-6.69781524061012
31
0.0
0
LINE
8
MTC_OUTLINE
10
3.93347681431917
20
-6.69781524061012
30
0.0
11
3.92948876422835
21
-6.79497437726138
31
0.0
0
LINE
8
MTC_OUTLINE
10
3.92948876422835
20
-6.79497437726138
30
0.0
11
3.92312833941045
21
-6.89327598936751
31
0.0
0
LINE
8
MTC_OUTLINE
10
3.92312833941045
20
-6.89327598936751
30
0.0
11
3.91452487560935
21
-6.99265779211693
31
0.0
0
LINE
8
MTC_OUTLINE
10
3.91452487560935
20
-6.99265779211693
30
0.0
11
3.90354581586257
21
-7.09318362157834
31
0.0
0
LINE
8
MTC_OUTLINE
10
3.90354581586257
20
-7.09318362157834
30
0.0
11
3.8902815202139
21
-7.19480996264809
31
0.0
0
LINE
8
MTC_OUTLINE
10
3.8902815202139
20
-7.19480996264809
30
0.0
11
3.87456434046524
21
-7.29761755044327
31
0.0
0
LINE
8
MTC_OUTLINE
10
3.87456434046524
20
-7.29761755044327
30
0.0
11
3.85650120785998
21
-7.40155488959111
31
0.0
0
LINE
8
MTC_OUTLINE
10
3.85650120785998
20
-7.40155488959111
30
0.0
11
3.83592502713588
21
-7.50670244892882
31
0.0
0
LINE
8
MTC_OUTLINE
10
3.83592502713588
20
-7.50670244892882
30
0.0
11
3.79155035594917
21
-7.52921299797416
31
0.0
0
LINE
8
MTC_OUTLINE
10
3.79155035594917
20
-7.52921299797416
30
0.0
11
3.74704359061288
21
-7.55146123611903
31
0.0
0
LINE
8
MTC_OUTLINE
10
3.74704359061288
20
-7.55146123611903
30
0.0
11
3.70240628170202
21
-7.57344638825514
31
0.0
0
LINE
8
MTC_OUTLINE
10
3.70240628170202
20
-7.57344638825514
30
0.0
11
3.65763998433966
21
-7.59516768843988
31
0.0
0
LINE
8
MTC_OUTLINE
10
3.65763998433966
20
-7.59516768843988
30
0.0
11
3.61274625814268
21
-7.616624379923
31
0.0
0
LINE
8
MTC_OUTLINE
10
3.61274625814268
20
-7.616624379923
30
0.0
11
3.56772666716749
21
-7.63781571517298
31
0.0
0
LINE
8
MTC_OUTLINE
10
3.56772666716749
20
-7.63781571517298
30
0.0
11
3.52258277985548
21
-7.65874095590307
31
0.0
0
LINE
8
MTC_OUTLINE
10
3.52258277985548
20
-7.65874095590307
30
0.0
11
3.47731616897845
21
-7.67939937309699
31
0.0
0
LINE
8
MTC_OUTLINE
10
3.47731616897845
20
-7.67939937309699
30
0.0
11
3.38227945794087
21
-7.62992804803864
31
0.0
0
LINE
8
MTC_OUTLINE
10
3.38227945794087
20
-7.62992804803864
30
0.0
11
3.28975579502213
21
-7.57924650279042
31
0.0
0
LINE
8
MTC_OUTLINE
10
3.28975579502213
20
-7.57924650279042
30
0.0
11
3.19957808496
21
-7.52743520618954
31
0.0
0
LINE
8
MTC_OUTLINE
10
3.19957808496
20
-7.52743520618954
30
0.0
11
3.11185325899784
21
-7.47444266286323
31
0.0
0
LINE
8
MTC_OUTLINE
10
3.11185325899784
20
-7.47444266286323
30
0.0
11
3.02641366893759
21
-7.42034960792858
31
0.0
0
LINE
8
MTC_OUTLINE
10
3.02641366893759
20
-7.42034960792858
30
0.0
11
2.94334967482301
21
-7.36511252628194
31
0.0
0
LINE
8
MTC_OUTLINE
10
2.94334967482301
20
-7.36511252628194
30
0.0
11
2.86252871969163
21
-7.30879525399201
31
0.0
0
LINE
8
MTC_OUTLINE
10
2.86252871969163
20
-7.30879525399201
30
0.0
11
2.78408013928733
21
-7.25133550624721
31
0.0
0
LINE
8
MTC_OUTLINE
10
2.78408013928733
20
-7.25133550624721
30
0.0
11
2.70789479762219
21
-7.19278584016933
31
0.0
0
LINE
8
MTC_OUTLINE
10
2.70789479762219
20
-7.19278584016933
30
0.0
11
2.63399709003552
21
-7.13313450758214
31
0.0
0
LINE
8
MTC_OUTLINE
10
2.63399709003552
20
-7.13313450758214
30
0.0
11
2.56241901774186
21
-7.07236609751295
31
0.0
0
LINE
8
MTC_OUTLINE
10
2.56241901774186
20
-7.07236609751295
30
0.0
11
2.49319558067234
21
-7.01046375488326
31
0.0
0
LINE
8
MTC_OUTLINE
10
2.49319558067234
20
-7.01046375488326
30
0.0
11
2.4263649456425
21
-6.94740909952343
31
0.0
0
LINE
8
MTC_OUTLINE
10
2.4263649456425
20
-6.94740909952343
30
0.0
11
2.36196862997016
21
-6.88318213774696
31
0.0
0
LINE
8
MTC_OUTLINE
10
2.36196862997016
20
-6.88318213774696
30
0.0
11
2.30005170199063
21
-6.81776116578745
31
0.0
0
LINE
8
MTC_OUTLINE
10
2.30005170199063
20
-6.81776116578745
30
0.0
11
2.240752697177
21
-6.75107946847724
31
0.0
0
LINE
8
MTC_OUTLINE
10
2.240752697177
20
-6.75107946847724
30
0.0
11
2.1841646100458
21
-6.68309226201751
31
0.0
0
LINE
8
MTC_OUTLINE
10
2.1841646100458
20
-6.68309226201751
30
0.0
11
2.13047406890195
21
-6.61370967095343
31
0.0
0
LINE
8
MTC_OUTLINE
10
2.13047406890195
20
-6.61370967095343
30
0.0
11
2.07992362829974
21
-6.54281488716801
31
0.0
0
LINE
8
MTC_OUTLINE
10
2.07992362829974
20
-6.54281488716801
30
0.0
11
2.03287468273769
21
-6.47023387224336
31
0.0
0
LINE
8
MTC_OUTLINE
10
2.03287468273769
20
-6.47023387224336
30
0.0
11
1.98996272508019
21
-6.39566058894556
31
0.0
0
LINE
8
MTC_OUTLINE
10
1.98996272508019
20
-6.39566058894556
30
0.0
11
1.95247213672247
21
-6.31847651179381
31
0.0
0
LINE
8
MTC_OUTLINE
10
1.95247213672247
20
-6.31847651179381
30
0.0
11
1.91328405563016
21
-6.24210990405865
31
0.0
0
LINE
8
MTC_OUTLINE
10
1.91328405563016
20
-6.24210990405865
30
0.0
11
1.86395119963541
21
-6.17062876243002
31
0.0
0
LINE
8
MTC_OUTLINE
10
1.86395119963541
20
-6.17062876243002
30
0.0
11
1.80086825764065
21
-6.10576931322541
31
0.0
0
LINE
8
MTC_OUTLINE
10
1.80086825764065
20
-6.10576931322541
30
0.0
11
1.71896226061643
21
-6.04997456957141
31
0.0
0
LINE
8
MTC_OUTLINE
10
1.71896226061643
20
-6.04997456957141
30
0.0
11
1.60554533771215
21
-6.00935468803637
31
0.0
0
LINE
8
MTC_OUTLINE
10
1.60554533771215
20
-6.00935468803637
30
0.0
11
1.52331593501693
21
-6.0013349848196
31
0.0
0
LINE
8
MTC_OUTLINE
10
1.52331593501693
20
-6.0013349848196
30
0.0
11
1.46471155840002
21
-6.00574771691209
31
0.0
0
LINE
8
MTC_OUTLINE
10
1.46471155840002
20
-6.00574771691209
30
0.0
11
1.37641836565182
21
-6.02445782931586
31
0.0
0
LINE
8
MTC_OUTLINE
10
1.37641836565182
20
-6.02445782931586
30
0.0
11
1.37380419247815
21
-6.02505449728367
31
0.0
0
LINE
8
MTC_OUTLINE
10
5.56713019332287
20
-2.68247666627348
30
0.0
11
5.52924209878806
21
-2.76439277265284
31
0.0
0
LINE
8
MTC_OUTLINE
10
5.52924209878806
20
-2.76439277265284
30
0.0
11
5.51189930248338
21
-2.82054588992616
31
0.0
0
LINE
8
MTC_OUTLINE
10
5.51189930248338
20
-2.82054588992616
30
0.0
11
5.50142017151042
21
-2.90249818166562
31
0.0
0
LINE
8
MTC_OUTLINE
10
5.50142017151042
20
-2.90249818166562
30
0.0
11
5.51578398819734
21
-3.02211027949514
31
0.0
0
LINE
8
MTC_OUTLINE
10
5.51578398819734
20
-3.02211027949514
30
0.0
11
5.5519540421842
21
-3.11437822063688
31
0.0
0
LINE
8
MTC_OUTLINE
10
5.5519540421842
20
-3.11437822063688
30
0.0
11
5.60115005441312
21
-3.19031212678302
31
0.0
0
LINE
8
MTC_OUTLINE
10
5.60115005441312
20
-3.19031212678302
30
0.0
11
5.65986142139081
21
-3.25431415547542
31
0.0
0
LINE
8
MTC_OUTLINE
10
5.65986142139081
20
-3.25431415547542
30
0.0
11
5.72559319042584
21
-3.30951287843346
31
0.0
0
LINE
8
MTC_OUTLINE
10
5.72559319042584
20
-3.30951287843346
30
0.0
11
5.79249966088115
21
-3.36323857240189
31
0.0
0
LINE
8
MTC_OUTLINE
10
5.79249966088115
20
-3.36323857240189
30
0.0
11
5.85565442737537
21
-3.42166875433616
31
0.0
0
LINE
8
MTC_OUTLINE
10
5.85565442737537
20
-3.42166875433616
30
0.0
11
5.91594630941177
21
-3.48368887983185
31
0.0
0
LINE
8
MTC_OUTLINE
10
5.91594630941177
20
-3.48368887983185
30
0.0
11
5.97381508169757
21
-3.54874748884861
31
0.0
0
LINE
8
MTC_OUTLINE
10
5.97381508169757
20
-3.54874748884861
30
0.0
11
6.02951083698548
21
-3.61653097499378
31
0.0
0
LINE
8
MTC_OUTLINE
10
6.02951083698548
20
-3.61653097499378
30
0.0
11
6.08320142823511
21
-3.68682885731346
31
0.0
0
LINE
8
MTC_OUTLINE
10
6.08320142823511
20
-3.68682885731346
30
0.0
11
6.13501600624067
21
-3.75947918583413
31
0.0
0
LINE
8
MTC_OUTLINE
10
6.13501600624067
20
-3.75947918583413
30
0.0
11
6.18501892520436
21
-3.83440126293869
31
0.0
0
LINE
8
MTC_OUTLINE
10
6.18501892520436
20
-3.83440126293869
30
0.0
11
6.23330605464812
21
-3.911474872049
31
0.0
0
LINE
8
MTC_OUTLINE
10
6.23330605464812
20
-3.911474872049
30
0.0
11
6.27990858282769
21
-3.9906609043294
31
0.0
0
LINE
8
MTC_OUTLINE
10
6.27990858282769
20
-3.9906609043294
30
0.0
11
6.32485524061844
21
-4.07192333240168
31
0.0
0
LINE
8
MTC_OUTLINE
10
6.32485524061844
20
-4.07192333240168
30
0.0
11
6.36817244027623
21
-4.15522903634457
31
0.0
0
LINE
8
MTC_OUTLINE
10
6.36817244027623
20
-4.15522903634457
30
0.0
11
6.40988440250491
21
-4.2405476443561
31
0.0
0
LINE
8
MTC_OUTLINE
10
6.40988440250491
20
-4.2405476443561
30
0.0
11
6.45001327283204
21
-4.32785138682304
31
0.0
0
LINE
8
MTC_OUTLINE
10
6.45001327283204
20
-4.32785138682304
30
0.0
11
6.48857593335626
21
-4.4171190942633
31
0.0
0
LINE
8
MTC_OUTLINE
10
6.48857593335626
20
-4.4171190942633
30
0.0
11
6.52549685963059
21
-4.5084454713379
31
0.0
0
LINE
8
MTC_OUTLINE
10
6.52549685963059
20
-4.5084454713379
30
0.0
11
6.56086555476684
21
-4.60171828469455
31
0.0
0
LINE
8
MTC_OUTLINE
10
6.56086555476684
20
-4.60171828469455
30
0.0
11
6.59459028650076
21
-4.69705256295427
31
0.0
0
LINE
8
MTC_OUTLINE
10
6.59459028650076
20
-4.69705256295427
30
0.0
11
6.62673358592283
21
-4.79436989460975
31
0.0
0
LINE
8
MTC_OUTLINE
10
6.62673358592283
20
-4.79436989460975
30
0.0
11
6.65717943688029
21
-4.89381575931508
31
0.0
0
LINE
8
MTC_OUTLINE
10
6.65717943688029
20
-4.89381575931508
30
0.0
11
6.68600183808955
21
-4.99529736561485
31
0.0
0
LINE
8
MTC_OUTLINE
10
6.68600183808955
20
-4.99529736561485
30
0.0
11
6.71308515604134
21
-5.09895971334338
31
0.0
0
LINE
8
MTC_OUTLINE
10
6.71308515604134
20
-5.09895971334338
30
0.0
11
6.68287191996809
21
-5.13849446548922
31
0.0
0
LINE
8
MTC_OUTLINE
10
6.68287191996809
20
-5.13849446548922
30
0.0
11
6.65242585874412
21
-5.17785019718357
31
0.0
0
LINE
8
MTC_OUTLINE
10
6.65242585874412
20
-5.17785019718357
30
0.0
11
6.62174803308238
21
-5.21702553730869
31
0.0
0
LINE
8
MTC_OUTLINE
10
6.62174803308238
20
-5.21702553730869
30
0.0
11
6.59083951177028
21
-5.25601912103153
31
0.0
0
LINE
8
MTC_OUTLINE
10
6.59083951177028
20
-5.25601912103153
30
0.0
11
6.55970137163245
21
-5.29482958985128
31
0.0
0
LINE
8
MTC_OUTLINE
10
6.55970137163245
20
-5.29482958985128
30
0.0
11
6.52833469749326
21
-5.33345559164666
31
0.0
0
LINE
8
MTC_OUTLINE
10
6.52833469749326
20
-5.33345559164666
30
0.0
11
6.49674058213895
21
-5.37189578072306
31
0.0
0
LINE
8
MTC_OUTLINE
10
6.49674058213895
20
-5.37189578072306
30
0.0
11
6.46492012627964
21
-5.41014881785943
31
0.0
0
LINE
8
MTC_OUTLINE
10
6.46492012627964
20
-5.41014881785943
30
0.0
11
6.35783020483153
21
-5.4068115776664
31
0.0
0
LINE
8
MTC_OUTLINE
10
6.35783020483153
20
-5.4068115776664
30
0.0
11
6.2524793666409
21
-5.40129359604459
31
0.0
0
LINE
8
MTC_OUTLINE
10
6.2524793666409
20
-5.40129359604459
30
0.0
11
6.14875197819846
21
-5.39373987282836
31
0.0
0
LINE
8
MTC_OUTLINE
10
6.14875197819846
20
-5.39373987282836
30
0.0
11
6.04672203822064
21
-5.38405761656228
31
0.0
0
LINE
8
MTC_OUTLINE
10
6.04672203822064
20
-5.38405761656228
30
0.0
11
5.94627353055466
21
-5.37239230690044
31
0.0
0
LINE
8
MTC_OUTLINE
10
5.94627353055466
20
-5.37239230690044
30
0.0
11
5.84746898629102
21
-5.35866553233551
31
0.0
0
LINE
8
MTC_OUTLINE
10
5.84746898629102
20
-5.35866553233551
30
0.0
11
5.75021667316545
21
-5.34299232148855
31
0.0
0
LINE
8
MTC_OUTLINE
10
5.75021667316545
20
-5.34299232148855
30
0.0
11
5.65460609428977
21
-5.32526044100724
31
0.0
0
LINE
8
MTC_OUTLINE
10
5.65460609428977
20
-5.32526044100724
30
0.0
11
5.56056172521701
21
-5.30556459555262
31
0.0
0
LINE
8
MTC_OUTLINE
10
5.56056172521701
20
-5.30556459555262
30
0.0
11
5.46810044804579
21
-5.28388361564258
31
0.0
0
LINE
8
MTC_OUTLINE
10
5.46810044804579
20
-5.28388361564258
30
0.0
11
5.37724440830369
21
-5.26018973166391
31
0.0
0
LINE
8
MTC_OUTLINE
10
5.37724440830369
20
-5.26018973166391
30
0.0
11
5.28801782669454
21
-5.23445257181463
31
0.0
0
LINE
8
MTC_OUTLINE
10
5.28801782669454
20
-5.23445257181463
30
0.0
11
5.20044711547421
21
-5.20663901617345
31
0.0
0
LINE
8
MTC_OUTLINE
10
5.20044711547421
20
-5.20663901617345
30
0.0
11
5.11456100551808
21
-5.1767130373622
31
0.0
0
LINE
8
MTC_OUTLINE
10
5.11456100551808
20
-5.1767130373622
30
0.0
11
5.03039068508187
21
-5.1446355265452
31
0.0
0
LINE
8
MTC_OUTLINE
10
5.03039068508187
20
-5.1446355265452
30
0.0
11
4.94803202368754
21
-5.1102862671443
31
0.0
0
LINE
8
MTC_OUTLINE
10
4.94803202368754
20
-5.1102862671443
30
0.0
11
4.86754937553727
21
-5.07358456154242
31
0.0
0
LINE
8
MTC_OUTLINE
10
4.86754937553727
20
-5.07358456154242
30
0.0
11
4.78907189142528
21
-5.03436845976602
31
0.0
0
LINE
8
MTC_OUTLINE
10
4.78907189142528
20
-5.03436845976602
30
0.0
11
4.71276742431119
21
-4.99242748086121
31
0.0
0
LINE
8
MTC_OUTLINE
10
4.71276742431119
20
-4.99242748086121
30
0.0
11
4.63888606694769
21
-4.94744801843534
31
0.0
0
LINE
8
MTC_OUTLINE
10
4.63888606694769
20
-4.94744801843534
30
0.0
11
4.56786759404202
21
-4.89887861244804
31
0.0
0
LINE
8
MTC_OUTLINE
10
4.56786759404202
20
-4.89887861244804
30
0.0
11
4.50060082509743
21
-4.8456047184949
31
0.0
0
LINE
8
MTC_OUTLINE
10
4.50060082509743
20
-4.8456047184949
30
0.0
11
4.43215935473257
21
-4.79380385353138
31
0.0
0
LINE
8
MTC_OUTLINE
10
4.43215935473257
20
-4.79380385353138
30
0.0
11
4.35669748231036
21
-4.75080629430221
31
0.0
0
LINE
8
MTC_OUTLINE
10
4.35669748231036
20
-4.75080629430221
30
0.0
11
4.27172025513938
21
-4.71974061252679
31
0.0
0
LINE
8
MTC_OUTLINE
10
4.27172025513938
20
-4.71974061252679
30
0.0
11
4.17371706972635
21
-4.70500896574695
31
0.0
0
LINE
8
MTC_OUTLINE
10
4.17371706972635
20
-4.70500896574695
30
0.0
11
4.05390764701337
21
-4.71762147565491
31
0.0
0
LINE
8
MTC_OUTLINE
10
4.05390764701337
20
-4.71762147565491
30
0.0
11
3.97634189634046
21
-4.74607397343359
31
0.0
0
LINE
8
MTC_OUTLINE
10
3.97634189634046
20
-4.74607397343359
30
0.0
11
3.92545579018581
21
-4.77547719372652
31
0.0
0
LINE
8
MTC_OUTLINE
10
3.92545579018581
20
-4.77547719372652
30
0.0
11
3.85402438580103
21
-4.83064340312548
31
0.0
0
LINE
8
MTC_OUTLINE
10
3.85402438580103
20
-4.83064340312548
30
0.0
11
3.85192798168514
21
-4.83231522962025
31
0.0
0
LINE
8
MTC_OUTLINE
10
6.17969399380182
20
-1.34070075389542E-03
30
0.0
11
6.18110006669164
21
-9.15835905062765E-02
31
0.0
0
LINE
8
MTC_OUTLINE
10
6.18110006669164
20
-9.15835905062765E-02
30
0.0
11
6.18983867162441
21
-0.149700558312642
31
0.0
0
LINE
8
MTC_OUTLINE
10
6.18983867162441
20
-0.149700558312642
30
0.0
11
6.21595506762427
21
-0.228083746352408
31
0.0
0
LINE
8
MTC_OUTLINE
10
6.21595506762427
20
-0.228083746352408
30
0.0
11
6.28079416353341
21
-0.329618296229186
31
0.0
0
LINE
8
MTC_OUTLINE
10
6.28079416353341
20
-0.329618296229186
30
0.0
11
6.35341581542917
21
-0.397055240435437
31
0.0
0
LINE
8
MTC_OUTLINE
10
6.35341581542917
20
-0.397055240435437
30
0.0
11
6.43068637799687
21
-0.444123976155783
31
0.0
0
LINE
8
MTC_OUTLINE
10
6.43068637799687
20
-0.444123976155783
30
0.0
11
6.51135293135593
21
-0.476313904057245
31
0.0
0
LINE
8
MTC_OUTLINE
10
6.51135293135593
20
-0.476313904057245
30
0.0
11
6.59452503720019
21
-0.497526289262678
31
0.0
0
LINE
8
MTC_OUTLINE
10
6.59452503720019
20
-0.497526289262678
30
0.0
11
6.67811638912736
21
-0.516901837362375
31
0.0
0
LINE
8
MTC_OUTLINE
10
6.67811638912736
20
-0.516901837362375
30
0.0
11
6.76036877341327
21
-0.542143786001423
31
0.0
0
LINE
8
MTC_OUTLINE
10
6.76036877341327
20
-0.542143786001423
30
0.0
11
6.84159940606592
21
-0.571862321040054
31
0.0
0
LINE
8
MTC_OUTLINE
10
6.84159940606592
20
-0.571862321040054
30
0.0
11
6.92196524086113
21
-0.605369783055681
31
0.0
0
LINE
8
MTC_OUTLINE
10
6.92196524086113
20
-0.605369783055681
30
0.0
11
7.00155553486895
21
-0.642275111273076
31
0.0
0
LINE
8
MTC_OUTLINE
10
7.00155553486895
20
-0.642275111273076
30
0.0
11
7.08043019411705
21
-0.68231584023576
31
0.0
0
LINE
8
MTC_OUTLINE
10
7.08043019411705
20
-0.68231584023576
30
0.0
11
7.15863531199023
21
-0.725290021629915
31
0.0
0
LINE
8
MTC_OUTLINE
10
7.15863531199023
20
-0.725290021629915
30
0.0
11
7.23619385623733
21
-0.771097027172951
31
0.0
0
LINE
8
MTC_OUTLINE
10
7.23619385623733
20
-0.771097027172951
30
0.0
11
7.31314004229461
21
-0.819586949243911
31
0.0
0
LINE
8
MTC_OUTLINE
10
7.31314004229461
20
-0.819586949243911
30
0.0
11
7.38948500112164
21
-0.870711019922376
31
0.0
0
LINE
8
MTC_OUTLINE
10
7.38948500112164
20
-0.870711019922376
30
0.0
11
7.46523898664914
21
-0.924424313802573
31
0.0
0
LINE
8
MTC_OUTLINE
10
7.46523898664914
20
-0.924424313802573
30
0.0
11
7.54041142530209
21
-0.980685531018195
31
0.0
0
LINE
8
MTC_OUTLINE
10
7.54041142530209
20
-0.980685531018195
30
0.0
11
7.6150109613496
21
-1.03945679855164
31
0.0
0
LINE
8
MTC_OUTLINE
10
7.6150109613496
20
-1.03945679855164
30
0.0
11
7.68904549843896
21
-1.10070348826163
31
0.0
0
LINE
8
MTC_OUTLINE
10
7.68904549843896
20
-1.10070348826163
30
0.0
11
7.7625210617214
21
-1.16439920223575
31
0.0
0
LINE
8
MTC_OUTLINE
10
7.7625210617214
20
-1.16439920223575
30
0.0
11
7.83541069683387
21
-1.2306620352547
31
0.0
0
LINE
8
MTC_OUTLINE
10
7.83541069683387
20
-1.2306620352547
30
0.0
11
7.90774634706716
21
-1.29935203461728
31
0.0
0
LINE
8
MTC_OUTLINE
10
7.90774634706716
20
-1.29935203461728
30
0.0
11
7.97949527355519
21
-1.37061263866779
31
0.0
0
LINE
8
MTC_OUTLINE
10
7.97949527355519
20
-1.37061263866779
30
0.0
11
8.05067979338576
21
-1.44434606985589
31
0.0
0
LINE
8
MTC_OUTLINE
10
8.05067979338576
20
-1.44434606985589
30
0.0
11
8.12125850087336
21
-1.52073373834299
31
0.0
0
LINE
8
MTC_OUTLINE
10
8.12125850087336
20
-1.52073373834299
30
0.0
11
8.1912578058541
21
-1.59965993507679
31
0.0
0
LINE
8
MTC_OUTLINE
10
8.1912578058541
20
-1.59965993507679
30
0.0
11
8.26063643920632
21
-1.68130547189324
31
0.0
0
LINE
8
MTC_OUTLINE
10
8.26063643920632
20
-1.68130547189324
30
0.0
11
8.25056874019186
21
-1.73003408461518
31
0.0
0
LINE
8
MTC_OUTLINE
10
8.25056874019186
20
-1.73003408461518
30
0.0
11
8.24021359890206
21
-1.77870242453057
31
0.0
0
LINE
8
MTC_OUTLINE
10
8.24021359890206
20
-1.77870242453057
30
0.0
11
8.22957137610059
21
-1.8273087960789
31
0.0
0
LINE
8
MTC_OUTLINE
10
8.22957137610059
20
-1.8273087960789
30
0.0
11
8.21864244255274
21
-1.87585150585862
31
0.0
0
LINE
8
MTC_OUTLINE
10
8.21864244255274
20
-1.87585150585862
30
0.0
11
8.2074271790126
21
-1.92432886268607
31
0.0
0
LINE
8
MTC_OUTLINE
10
8.2074271790126
20
-1.92432886268607
30
0.0
11
8.19592597620969
21
-1.97273917765444
31
0.0
0
LINE
8
MTC_OUTLINE
10
8.19592597620969
20
-1.97273917765444
30
0.0
11
8.18413923483539
21
-2.02108076419261
31
0.0
0
LINE
8
MTC_OUTLINE
10
8.18413923483539
20
-2.02108076419261
30
0.0
11
8.17206736552902
21
-2.06935193812385
31
0.0
0
LINE
8
MTC_OUTLINE
10
8.17206736552902
20
-2.06935193812385
30
0.0
11
8.07413470598487
21
-2.11280976414493
31
0.0
0
LINE
8
MTC_OUTLINE
10
8.07413470598487
20
-2.11280976414493
30
0.0
11
7.97682271806923
21
-2.15354825008335
31
0.0
0
LINE
8
MTC_OUTLINE
10
7.97682271806923
20
-2.15354825008335
30
0.0
11
7.88009013266046
21
-2.19174820777507
31
0.0
0
LINE
8
MTC_OUTLINE
10
7.88009013266046
20
-2.19174820777507
30
0.0
11
7.78396335959467
21
-2.2272939281678
31
0.0
0
LINE
8
MTC_OUTLINE
10
7.78396335959467
20
-2.2272939281678
30
0.0
11
7.68840099318632
21
-2.26036682142293
31
0.0
0
LINE
8
MTC_OUTLINE
10
7.68840099318632
20
-2.26036682142293
30
0.0
11
7.59342535052324
21
-2.29086910999014
31
0.0
0
LINE
8
MTC_OUTLINE
10
7.59342535052324
20
-2.29086910999014
30
0.0
11
7.49900369273934
21
-2.31894423221371
31
0.0
0
LINE
8
MTC_OUTLINE
10
7.49900369273934
20
-2.31894423221371
30
0.0
11
7.40516796312541
21
-2.34445223539246
31
0.0
0
LINE
8
MTC_OUTLINE
10
7.40516796312541
20
-2.34445223539246
30
0.0
11
7.3118912073184
21
-2.36751121430706
31
0.0
0
LINE
8
MTC_OUTLINE
10
7.3118912073184
20
-2.36751121430706
30
0.0
11
7.21917945046954
21
-2.38809477104513
31
0.0
0
LINE
8
MTC_OUTLINE
10
7.21917945046954
20
-2.38809477104513
30
0.0
11
7.12704059622611
21
-2.40616827746538
31
0.0
0
LINE
8
MTC_OUTLINE
10
7.12704059622611
20
-2.40616827746538
30
0.0
11
7.03548328885724
21
-2.4216938605502
31
0.0
0
LINE
8
MTC_OUTLINE
10
7.03548328885724
20
-2.4216938605502
30
0.0
11
6.9445169547879
21
-2.43463022043329
31
0.0
0
LINE
8
MTC_OUTLINE
10
6.9445169547879
20
-2.43463022043329
30
0.0
11
6.85415184794881
21
-2.44493243170887
31
0.0
0
LINE
8
MTC_OUTLINE
10
6.85415184794881
20
-2.44493243170887
30
0.0
11
6.76439909929954
21
-2.45255172645653
31
0.0
0
LINE
8
MTC_OUTLINE
10
6.76439909929954
20
-2.45255172645653
30
0.0
11
6.67529292427635
21
-2.45733819705531
31
0.0
0
LINE
8
MTC_OUTLINE
10
6.67529292427635
20
-2.45733819705531
30
0.0
11
6.58685629062808
21
-2.45919121522262
31
0.0
0
LINE
8
MTC_OUTLINE
10
6.58685629062808
20
-2.45919121522262
30
0.0
11
6.49913529173952
21
-2.45790883264464
31
0.0
0
LINE
8
MTC_OUTLINE
10
6.49913529173952
20
-2.45790883264464
30
0.0
11
6.41218983363836
21
-2.45322858386489
31
0.0
0
LINE
8
MTC_OUTLINE
10
6.41218983363836
20
-2.45322858386489
30
0.0
11
6.32610917339464
21
-2.44475940810814
31
0.0
0
LINE
8
MTC_OUTLINE
10
6.32610917339464
20
-2.44475940810814
30
0.0
11
6.24105026478418
21
-2.43181364595181
31
0.0
0
LINE
8
MTC_OUTLINE
10
6.24105026478418
20
-2.43181364595181
30
0.0
11
6.15733032381497
21
-2.41300148325613
31
0.0
0
LINE
8
MTC_OUTLINE
10
6.15733032381497
20
-2.41300148325613
30
0.0
11
6.07319113676287
21
-2.39602615766619
31
0.0
0
LINE
8
MTC_OUTLINE
10
6.07319113676287
20
-2.39602615766619
30
0.0
11
5.98654639722556
21
-2.39002837477228
31
0.0
0
LINE
8
MTC_OUTLINE
10
5.98654639722556
20
-2.39002837477228
30
0.0
11
5.89650566689688
21
-2.39890939969725
31
0.0
0
LINE
8
MTC_OUTLINE
10
5.89650566689688
20
-2.39890939969725
30
0.0
11
5.80181602589628
21
-2.42815863310812
31
0.0
0
LINE
8
MTC_OUTLINE
10
5.80181602589628
20
-2.42815863310812
30
0.0
11
5.69934382890905
21
-2.49150547218952
31
0.0
0
LINE
8
MTC_OUTLINE
10
5.69934382890905
20
-2.49150547218952
30
0.0
11
5.64180457846071
21
-2.5507948048316
31
0.0
0
LINE
8
MTC_OUTLINE
10
5.64180457846071
20
-2.5507948048316
30
0.0
11
5.60871536016939
21
-2.59936484493912
31
0.0
0
LINE
8
MTC_OUTLINE
10
5.60871536016939
20
-2.59936484493912
30
0.0
11
5.56829360983512
21
-2.68006080699266
31
0.0
0
LINE
8
MTC_OUTLINE
10
5.56829360983512
20
-2.68006080699266
30
0.0
11
5.56713019332287
21
-2.68247666627348
31
0.0
0
LINE
8
MTC_OUTLINE
10
5.56829360983514
20
2.68006080699262
30
0.0
11
5.60871536016941
21
2.59936484493908
31
0.0
0
LINE
8
MTC_OUTLINE
10
5.60871536016941
20
2.59936484493908
30
0.0
11
5.64180457846073
21
2.55079480483156
31
0.0
0
LINE
8
MTC_OUTLINE
10
5.64180457846073
20
2.55079480483156
30
0.0
11
5.69934382890906
21
2.49150547218948
31
0.0
0
LINE
8
MTC_OUTLINE
10
5.69934382890906
20
2.49150547218948
30
0.0
11
5.80181602589629
21
2.42815863310808
31
0.0
0
LINE
8
MTC_OUTLINE
10
5.80181602589629
20
2.42815863310808
30
0.0
11
5.8965056668969
21
2.3989093996972
31
0.0
0
LINE
8
MTC_OUTLINE
10
5.8965056668969
20
2.3989093996972
30
0.0
11
5.98654639722557
21
2.39002837477223
31
0.0
0
LINE
8
MTC_OUTLINE
10
5.98654639722557
20
2.39002837477223
30
0.0
11
6.07319113676289
21
2.39602615766615
31
0.0
0
LINE
8
MTC_OUTLINE
10
6.07319113676289
20
2.39602615766615
30
0.0
11
6.15733032381499
21
2.41300148325609
31
0.0
0
LINE
8
MTC_OUTLINE
10
6.15733032381499
20
2.41300148325609
30
0.0
11
6.24105026478419
21
2.43181364595177
31
0.0
0
LINE
8
MTC_OUTLINE
10
6.24105026478419
20
2.43181364595177
30
0.0
11
6.32610917339466
21
2.44475940810809
31
0.0
0
LINE
8
MTC_OUTLINE
10
6.32610917339466
20
2.44475940810809
30
0.0
11
6.41218983363838
21
2.45322858386484
31
0.0
0
LINE
8
MTC_OUTLINE
10
6.41218983363838
20
2.45322858386484
30
0.0
11
6.49913529173954
21
2.45790883264459
31
0.0
0
LINE
8
MTC_OUTLINE
10
6.49913529173954
20
2.45790883264459
30
0.0
11
6.5868562906281
21
2.45919121522257
31
0.0
0
LINE
8
MTC_OUTLINE
10
6.5868562906281
20
2.45919121522257
30
0.0
11
6.67529292427637
21
2.45733819705526
31
0.0
0
LINE
8
MTC_OUTLINE
10
6.67529292427637
20
2.45733819705526
30
0.0
11
6.76439909929956
21
2.45255172645648
31
0.0
0
LINE
8
MTC_OUTLINE
10
6.76439909929956
20
2.45255172645648
30
0.0
11
6.85415184794882
21
2.44493243170882
31
0.0
0
LINE
8
MTC_OUTLINE
10
6.85415184794882
20
2.44493243170882
30
0.0
11
6.94451695478792
21
2.43463022043324
31
0.0
0
LINE
8
MTC_OUTLINE
10
6.94451695478792
20
2.43463022043324
30
0.0
11
7.03548328885726
21
2.42169386055015
31
0.0
0
LINE
8
MTC_OUTLINE
10
7.03548328885726
20
2.42169386055015
30
0.0
11
7.12704059622613
21
2.40616827746533
31
0.0
0
LINE
8
MTC_OUTLINE
10
7.12704059622613
20
2.40616827746533
30
0.0
11
7.21917945046955
21
2.38809477104508
31
0.0
0
LINE
8
MTC_OUTLINE
10
7.21917945046955
20
2.38809477104508
30
0.0
11
7.31189120731841
21
2.36751121430701
31
0.0
0
LINE
8
MTC_OUTLINE
10
7.31189120731841
20
2.36751121430701
30
0.0
11
7.40516796312543
21
2.3444522353924
31
0.0
0
LINE
8
MTC_OUTLINE
10
7.40516796312543
20
2.3444522353924
30
0.0
11
7.49900369273936
21
2.31894423221365
31
0.0
0
LINE
8
MTC_OUTLINE
10
7.49900369273936
20
2.31894423221365
30
0.0
11
7.59342535052325
21
2.29086910999008
31
0.0
0
LINE
8
MTC_OUTLINE
10
7.59342535052325
20
2.29086910999008
30
0.0
11
7.68840099318634
21
2.26036682142288
31
0.0
0
LINE
8
MTC_OUTLINE
10
7.68840099318634
20
2.26036682142288
30
0.0
11
7.78396335959468
21
2.22729392816774
31
0.0
0
LINE
8
MTC_OUTLINE
10
7.78396335959468
20
2.22729392816774
30
0.0
11
7.88009013266048
21
2.19174820777502
31
0.0
0
LINE
8
MTC_OUTLINE
10
7.88009013266048
20
2.19174820777502
30
0.0
11
7.97682271806925
21
2.15354825008329
31
0.0
0
LINE
8
MTC_OUTLINE
10
7.97682271806925
20
2.15354825008329
30
0.0
11
8.07413470598489
21
2.11280976414487
31
0.0
0
LINE
8
MTC_OUTLINE
10
8.07413470598489
20
2.11280976414487
30
0.0
11
8.17206736552904
21
2.06935193812379
31
0.0
0
LINE
8
MTC_OUTLINE
10
8.17206736552904
20
2.06935193812379
30
0.0
11
8.18413923483541
21
2.02108076419255
31
0.0
0
LINE
8
MTC_OUTLINE
10
8.18413923483541
20
2.02108076419255
30
0.0
11
8.1959259762097
21
1.97273917765438
31
0.0
0
LINE
8
MTC_OUTLINE
10
8.1959259762097
20
1.97273917765438
30
0.0
11
8.20742717901261
21
1.92432886268601
31
0.0
0
LINE
8
MTC_OUTLINE
10
8.20742717901261
20
1.92432886268601
30
0.0
11
8.21864244255276
21
1.87585150585856
31
0.0
0
LINE
8
MTC_OUTLINE
10
8.21864244255276
20
1.87585150585856
30
0.0
11
8.2295713761006
21
1.82730879607884
31
0.0
0
LINE
8
MTC_OUTLINE
10
8.2295713761006
20
1.82730879607884
30
0.0
11
8.24021359890208
21
1.77870242453051
31
0.0
0
LINE
8
MTC_OUTLINE
10
8.24021359890208
20
1.77870242453051
30
0.0
11
8.25056874019187
21
1.73003408461512
31
0.0
0
LINE
8
MTC_OUTLINE
10
8.25056874019187
20
1.73003408461512
30
0.0
11
8.26063643920633
21
1.68130547189318
31
0.0
0
LINE
8
MTC_OUTLINE
10
8.26063643920633
20
1.68130547189318
30
0.0
11
8.19125780585411
21
1.59965993507673
31
0.0
0
LINE
8
MTC_OUTLINE
10
8.19125780585411
20
1.59965993507673
30
0.0
11
8.12125850087337
21
1.52073373834293
31
0.0
0
LINE
8
MTC_OUTLINE
10
8.12125850087337
20
1.52073373834293
30
0.0
11
8.05067979338578
21
1.44434606985583
31
0.0
0
LINE
8
MTC_OUTLINE
10
8.05067979338578
20
1.44434606985583
30
0.0
11
7.9794952735552
21
1.37061263866773
31
0.0
0
LINE
8
MTC_OUTLINE
10
7.9794952735552
20
1.37061263866773
30
0.0
11
7.90774634706717
21
1.29935203461722
31
0.0
0
LINE
8
MTC_OUTLINE
10
7.90774634706717
20
1.29935203461722
30
0.0
11
7.83541069683388
21
1.23066203525464
31
0.0
0
LINE
8
MTC_OUTLINE
10
7.83541069683388
20
1.23066203525464
30
0.0
11
7.7625210617214
21
1.16439920223569
31
0.0
0
LINE
8
MTC_OUTLINE
10
7.7625210617214
20
1.16439920223569
30
0.0
11
7.68904549843896
21
1.10070348826157
31
0.0
0
LINE
8
MTC_OUTLINE
10
7.68904549843896
20
1.10070348826157
30
0.0
11
7.61501096134961
21
1.03945679855159
31
0.0
0
LINE
8
MTC_OUTLINE
10
7.61501096134961
20
1.03945679855159
30
0.0
11
7.5404114253021
21
0.980685531018139
31
0.0
0
LINE
8
MTC_OUTLINE
10
7.5404114253021
20
0.980685531018139
30
0.0
11
7.46523898664915
21
0.924424313802518
31
0.0
0
LINE
8
MTC_OUTLINE
10
7.46523898664915
20
0.924424313802518
30
0.0
11
7.38948500112165
21
0.870711019922321
31
0.0
0
LINE
8
MTC_OUTLINE
10
7.38948500112165
20
0.870711019922321
30
0.0
11
7.31314004229461
21
0.819586949243856
31
0.0
0
LINE
8
MTC_OUTLINE
10
7.31314004229461
20
0.819586949243856
30
0.0
11
7.23619385623734
21
0.771097027172897
31
0.0
0
LINE
8
MTC_OUTLINE
10
7.23619385623734
20
0.771097027172897
30
0.0
11
7.15863531199023
21
0.725290021629862
31
0.0
0
LINE
8
MTC_OUTLINE
10
7.15863531199023
20
0.725290021629862
30
0.0
11
7.08043019411705
21
0.682315840235707
31
0.0
0
LINE
8
MTC_OUTLINE
10
7.08043019411705
20
0.682315840235707
30
0.0
11
7.00155553486895
21
0.642275111273023
31
0.0
0
LINE
8
MTC_OUTLINE
10
7.00155553486895
20
0.642275111273023
30
0.0
11
6.92196524086114
21
0.60536978305563
31
0.0
0
LINE
8
MTC_OUTLINE
10
6.92196524086114
20
0.60536978305563
30
0.0
11
6.84159940606593
21
0.571862321040002
31
0.0
0
LINE
8
MTC_OUTLINE
10
6.84159940606593
20
0.571862321040002
30
0.0
11
6.76036877341327
21
0.542143786001373
31
0.0
0
LINE
8
MTC_OUTLINE
10
6.76036877341327
20
0.542143786001373
30
0.0
11
6.67811638912737
21
0.516901837362326
31
0.0
0
LINE
8
MTC_OUTLINE
10
6.67811638912737
20
0.516901837362326
30
0.0
11
6.5945250372002
21
0.497526289262629
31
0.0
0
LINE
8
MTC_OUTLINE
10
6.5945250372002
20
0.497526289262629
30
0.0
11
6.51135293135593
21
0.476313904057196
31
0.0
0
LINE
8
MTC_OUTLINE
10
6.51135293135593
20
0.476313904057196
30
0.0
11
6.43068637799687
21
0.444123976155735
31
0.0
0
LINE
8
MTC_OUTLINE
10
6.43068637799687
20
0.444123976155735
30
0.0
11
6.35341581542918
21
0.39705524043539
31
0.0
0
LINE
8
MTC_OUTLINE
10
6.35341581542918
20
0.39705524043539
30
0.0
11
6.28079416353341
21
0.329618296229139
31
0.0
0
LINE
8
MTC_OUTLINE
10
6.28079416353341
20
0.329618296229139
30
0.0
11
6.21595506762427
21
0.228083746352361
31
0.0
0
LINE
8
MTC_OUTLINE
10
6.21595506762427
20
0.228083746352361
30
0.0
11
6.18983867162441
21
0.149700558312596
31
0.0
0
LINE
8
MTC_OUTLINE
10
6.18983867162441
20
0.149700558312596
30
0.0
11
6.18110006669164
21
9.15835905062303E-02
31
0.0
0
LINE
8
MTC_OUTLINE
10
6.18110006669164
20
9.15835905062303E-02
30
0.0
11
6.17969399380182
21
1.34070075384924E-03
31
0.0
0
LINE
8
MTC_OUTLINE
10
6.17969399380182
20
1.34070075384924E-03
30
0.0
11
6.17969399380182
21
-1.34070075389542E-03
31
0.0
0
LINE
8
MTC_OUTLINE
10
3.85402438580106
20
4.83064340312546
30
0.0
11
3.92545579018584
21
4.77547719372649
31
0.0
0
LINE
8
MTC_OUTLINE
10
3.92545579018584
20
4.77547719372649
30
0.0
11
3.97634189634049
21
4.74607397343356
31
0.0
0
LINE
8
MTC_OUTLINE
10
3.97634189634049
20
4.74607397343356
30
0.0
11
4.05390764701341
21
4.71762147565488
31
0.0
0
LINE
8
MTC_OUTLINE
10
4.05390764701341
20
4.71762147565488
30
0.0
11
4.17371706972638
21
4.70500896574692
31
0.0
0
LINE
8
MTC_OUTLINE
10
4.17371706972638
20
4.70500896574692
30
0.0
11
4.27172025513942
21
4.71974061252675
31
0.0
0
LINE
8
MTC_OUTLINE
10
4.27172025513942
20
4.71974061252675
30
0.0
11
4.3566974823104
21
4.75080629430217
31
0.0
0
LINE
8
MTC_OUTLINE
10
4.3566974823104
20
4.75080629430217
30
0.0
11
4.4321593547326
21
4.79380385353134
31
0.0
0
LINE
8
MTC_OUTLINE
10
4.4321593547326
20
4.79380385353134
30
0.0
11
4.50060082509746
21
4.84560471849487
31
0.0
0
LINE
8
MTC_OUTLINE
10
4.50060082509746
20
4.84560471849487
30
0.0
11
4.56786759404205
21
4.89887861244801
31
0.0
0
LINE
8
MTC_OUTLINE
10
4.56786759404205
20
4.89887861244801
30
0.0
11
4.63888606694773
21
4.9474480184353
31
0.0
0
LINE
8
MTC_OUTLINE
10
4.63888606694773
20
4.9474480184353
30
0.0
11
4.71276742431122
21
4.99242748086117
31
0.0
0
LINE
8
MTC_OUTLINE
10
4.71276742431122
20
4.99242748086117
30
0.0
11
4.78907189142532
21
5.03436845976598
31
0.0
0
LINE
8
MTC_OUTLINE
10
4.78907189142532
20
5.03436845976598
30
0.0
11
4.86754937553731
21
5.07358456154238
31
0.0
0
LINE
8
MTC_OUTLINE
10
4.86754937553731
20
5.07358456154238
30
0.0
11
4.94803202368758
21
5.11028626714426
31
0.0
0
LINE
8
MTC_OUTLINE
10
4.94803202368758
20
5.11028626714426
30
0.0
11
5.03039068508191
21
5.14463552654516
31
0.0
0
LINE
8
MTC_OUTLINE
10
5.03039068508191
20
5.14463552654516
30
0.0
11
5.11456100551812
21
5.17671303736216
31
0.0
0
LINE
8
MTC_OUTLINE
10
5.11456100551812
20
5.17671303736216
30
0.0
11
5.20044711547425
21
5.20663901617341
31
0.0
0
LINE
8
MTC_OUTLINE
10
5.20044711547425
20
5.20663901617341
30
0.0
11
5.28801782669458
21
5.23445257181459
31
0.0
0
LINE
8
MTC_OUTLINE
10
5.28801782669458
20
5.23445257181459
30
0.0
11
5.37724440830373
21
5.26018973166387
31
0.0
0
LINE
8
MTC_OUTLINE
10
5.37724440830373
20
5.26018973166387
30
0.0
11
5.46810044804583
21
5.28388361564254
31
0.0
0
LINE
8
MTC_OUTLINE
10
5.46810044804583
20
5.28388361564254
30
0.0
11
5.56056172521705
21
5.30556459555258
31
0.0
0
LINE
8
MTC_OUTLINE
10
5.56056172521705
20
5.30556459555258
30
0.0
11
5.65460609428981
21
5.3252604410072
31
0.0
0
LINE
8
MTC_OUTLINE
10
5.65460609428981
20
5.3252604410072
30
0.0
11
5.75021667316549
21
5.34299232148851
31
0.0
0
LINE
8
MTC_OUTLINE
10
5.75021667316549
20
5.34299232148851
30
0.0
11
5.84746898629106
21
5.35866553233547
31
0.0
0
LINE
8
MTC_OUTLINE
10
5.84746898629106
20
5.35866553233547
30
0.0
11
5.94627353055471
21
5.37239230690039
31
0.0
0
LINE
8
MTC_OUTLINE
10
5.94627353055471
20
5.37239230690039
30
0.0
11
6.04672203822068
21
5.38405761656223
31
0.0
0
LINE
8
MTC_OUTLINE
10
6.04672203822068
20
5.38405761656223
30
0.0
11
6.1487519781985
21
5.39373987282831
31
0.0
0
LINE
8
MTC_OUTLINE
10
6.1487519781985
20
5.39373987282831
30
0.0
11
6.25247936664094
21
5.40129359604455
31
0.0
0
LINE
8
MTC_OUTLINE
10
6.25247936664094
20
5.40129359604455
30
0.0
11
6.35783020483157
21
5.40681157766635
31
0.0
0
LINE
8
MTC_OUTLINE
10
6.35783020483157
20
5.40681157766635
30
0.0
11
6.46492012627968
21
5.41014881785938
31
0.0
0
LINE
8
MTC_OUTLINE
10
6.46492012627968
20
5.41014881785938
30
0.0
11
6.49674058213899
21
5.37189578072301
31
0.0
0
LINE
8
MTC_OUTLINE
10
6.49674058213899
20
5.37189578072301
30
0.0
11
6.5283346974933
21
5.33345559164661
31
0.0
0
LINE
8
MTC_OUTLINE
10
6.5283346974933
20
5.33345559164661
30
0.0
11
6.5597013716325
21
5.29482958985123
31
0.0
0
LINE
8
MTC_OUTLINE
10
6.5597013716325
20
5.29482958985123
30
0.0
11
6.59083951177032
21
5.25601912103148
31
0.0
0
LINE
8
MTC_OUTLINE
10
6.59083951177032
20
5.25601912103148
30
0.0
11
6.62174803308242
21
5.21702553730864
31
0.0
0
LINE
8
MTC_OUTLINE
10
6.62174803308242
20
5.21702553730864
30
0.0
11
6.65242585874416
21
5.17785019718352
31
0.0
0
LINE
8
MTC_OUTLINE
10
6.65242585874416
20
5.17785019718352
30
0.0
11
6.68287191996813
21
5.13849446548917
31
0.0
0
LINE
8
MTC_OUTLINE
10
6.68287191996813
20
5.13849446548917
30
0.0
11
6.71308515604138
21
5.09895971334333
31
0.0
0
LINE
8
MTC_OUTLINE
10
6.71308515604138
20
5.09895971334333
30
0.0
11
6.68600183808959
21
4.9952973656148
31
0.0
0
LINE
8
MTC_OUTLINE
10
6.68600183808959
20
4.9952973656148
30
0.0
11
6.65717943688033
21
4.89381575931503
31
0.0
0
LINE
8
MTC_OUTLINE
10
6.65717943688033
20
4.89381575931503
30
0.0
11
6.62673358592287
21
4.79436989460971
31
0.0
0
LINE
8
MTC_OUTLINE
10
6.62673358592287
20
4.79436989460971
30
0.0
11
6.59459028650079
21
4.69705256295422
31
0.0
0
LINE
8
MTC_OUTLINE
10
6.59459028650079
20
4.69705256295422
30
0.0
11
6.56086555476687
21
4.6017182846945
31
0.0
0
LINE
8
MTC_OUTLINE
10
6.56086555476687
20
4.6017182846945
30
0.0
11
6.52549685963062
21
4.50844547133786
31
0.0
0
LINE
8
MTC_OUTLINE
10
6.52549685963062
20
4.50844547133786
30
0.0
11
6.48857593335629
21
4.41711909426325
31
0.0
0
LINE
8
MTC_OUTLINE
10
6.48857593335629
20
4.41711909426325
30
0.0
11
6.45001327283208
21
4.32785138682299
31
0.0
0
LINE
8
MTC_OUTLINE
10
6.45001327283208
20
4.32785138682299
30
0.0
11
6.40988440250494
21
4.24054764435605
31
0.0
0
LINE
8
MTC_OUTLINE
10
6.40988440250494
20
4.24054764435605
30
0.0
11
6.36817244027626
21
4.15522903634453
31
0.0
0
LINE
8
MTC_OUTLINE
10
6.36817244027626
20
4.15522903634453
30
0.0
11
6.32485524061847
21
4.07192333240163
31
0.0
0
LINE
8
MTC_OUTLINE
10
6.32485524061847
20
4.07192333240163
30
0.0
11
6.27990858282772
21
3.99066090432935
31
0.0
0
LINE
8
MTC_OUTLINE
10
6.27990858282772
20
3.99066090432935
30
0.0
11
6.23330605464815
21
3.91147487204896
31
0.0
0
LINE
8
MTC_OUTLINE
10
6.23330605464815
20
3.91147487204896
30
0.0
11
6.18501892520439
21
3.83440126293864
31
0.0
0
LINE
8
MTC_OUTLINE
10
6.18501892520439
20
3.83440126293864
30
0.0
11
6.1350160062407
21
3.75947918583409
31
0.0
0
LINE
8
MTC_OUTLINE
10
6.1350160062407
20
3.75947918583409
30
0.0
11
6.08320142823514
21
3.68682885731342
31
0.0
0
LINE
8
MTC_OUTLINE
10
6.08320142823514
20
3.68682885731342
30
0.0
11
6.02951083698551
21
3.61653097499373
31
0.0
0
LINE
8
MTC_OUTLINE
10
6.02951083698551
20
3.61653097499373
30
0.0
11
5.9738150816976
21
3.54874748884856
31
0.0
0
LINE
8
MTC_OUTLINE
10
5.9738150816976
20
3.54874748884856
30
0.0
11
5.9159463094118
21
3.48368887983181
31
0.0
0
LINE
8
MTC_OUTLINE
10
5.9159463094118
20
3.48368887983181
30
0.0
11
5.8556544273754
21
3.42166875433612
31
0.0
0
LINE
8
MTC_OUTLINE
10
5.8556544273754
20
3.42166875433612
30
0.0
11
5.79249966088117
21
3.36323857240184
31
0.0
0
LINE
8
MTC_OUTLINE
10
5.79249966088117
20
3.36323857240184
30
0.0
11
5.72559319042587
21
3.30951287843342
31
0.0
0
LINE
8
MTC_OUTLINE
10
5.72559319042587
20
3.30951287843342
30
0.0
11
5.65986142139083
21
3.25431415547538
31
0.0
0
LINE
8
MTC_OUTLINE
10
5.65986142139083
20
3.25431415547538
30
0.0
11
5.60115005441314
21
3.19031212678298
31
0.0
0
LINE
8
MTC_OUTLINE
10
5.60115005441314
20
3.19031212678298
30
0.0
11
5.55195404218422
21
3.11437822063684
31
0.0
0
LINE
8
MTC_OUTLINE
10
5.55195404218422
20
3.11437822063684
30
0.0
11
5.51578398819736
21
3.0221102794951
31
0.0
0
LINE
8
MTC_OUTLINE
10
5.51578398819736
20
3.0221102794951
30
0.0
11
5.50142017151044
21
2.90249818166558
31
0.0
0
LINE
8
MTC_OUTLINE
10
5.50142017151044
20
2.90249818166558
30
0.0
11
5.5118993024834
21
2.82054588992612
31
0.0
0
LINE
8
MTC_OUTLINE
10
5.5118993024834
20
2.82054588992612
30
0.0
11
5.52924209878808
21
2.76439277265279
31
0.0
0
LINE
8
MTC_OUTLINE
10
5.52924209878808
20
2.76439277265279
30
0.0
11
5.56713019332288
21
2.68247666627344
31
0.0
0
LINE
8
MTC_OUTLINE
10
5.56713019332288
20
2.68247666627344
30
0.0
11
5.56829360983514
21
2.68006080699262
31
0.0
0
LINE
8
MTC_OUTLINE
10
1.37641836565186
20
6.02445782931585
30
0.0
11
1.46471155840006
21
6.00574771691208
31
0.0
0
LINE
8
MTC_OUTLINE
10
1.46471155840006
20
6.00574771691208
30
0.0
11
1.52331593501697
21
6.00133498481959
31
0.0
0
LINE
8
MTC_OUTLINE
10
1.52331593501697
20
6.00133498481959
30
0.0
11
1.6055453377122
21
6.00935468803636
31
0.0
0
LINE
8
MTC_OUTLINE
10
1.6055453377122
20
6.00935468803636
30
0.0
11
1.71896226061647
21
6.0499745695714
31
0.0
0
LINE
8
MTC_OUTLINE
10
1.71896226061647
20
6.0499745695714
30
0.0
11
1.80086825764069
21
6.1057693132254
31
0.0
0
LINE
8
MTC_OUTLINE
10
1.80086825764069
20
6.1057693132254
30
0.0
11
1.86395119963546
21
6.17062876243
31
0.0
0
LINE
8
MTC_OUTLINE
10
1.86395119963546
20
6.17062876243
30
0.0
11
1.91328405563021
21
6.24210990405864
31
0.0
0
LINE
8
MTC_OUTLINE
10
1.91328405563021
20
6.24210990405864
30
0.0
11
1.95247213672252
21
6.3184765117938
31
0.0
0
LINE
8
MTC_OUTLINE
10
1.95247213672252
20
6.3184765117938
30
0.0
11
1.98996272508024
21
6.39566058894555
31
0.0
0
LINE
8
MTC_OUTLINE
10
1.98996272508024
20
6.39566058894555
30
0.0
11
2.03287468273774
21
6.47023387224334
31
0.0
0
LINE
8
MTC_OUTLINE
10
2.03287468273774
20
6.47023387224334
30
0.0
11
2.07992362829979
21
6.54281488716799
31
0.0
0
LINE
8
MTC_OUTLINE
10
2.07992362829979
20
6.54281488716799
30
0.0
11
2.130474068902
21
6.61370967095342
31
0.0
0
LINE
8
MTC_OUTLINE
10
2.130474068902
20
6.61370967095342
30
0.0
11
2.18416461004585
21
6.68309226201749
31
0.0
0
LINE
8
MTC_OUTLINE
10
2.18416461004585
20
6.68309226201749
30
0.0
11
2.24075269717705
21
6.75107946847723
31
0.0
0
LINE
8
MTC_OUTLINE
10
2.24075269717705
20
6.75107946847723
30
0.0
11
2.30005170199068
21
6.81776116578743
31
0.0
0
LINE
8
MTC_OUTLINE
10
2.30005170199068
20
6.81776116578743
30
0.0
11
2.36196862997021
21
6.88318213774694
31
0.0
0
LINE
8
MTC_OUTLINE
10
2.36196862997021
20
6.88318213774694
30
0.0
11
2.42636494564255
21
6.94740909952341
31
0.0
0
LINE
8
MTC_OUTLINE
10
2.42636494564255
20
6.94740909952341
30
0.0
11
2.49319558067239
21
7.01046375488324
31
0.0
0
LINE
8
MTC_OUTLINE
10
2.49319558067239
20
7.01046375488324
30
0.0
11
2.56241901774192
21
7.07236609751293
31
0.0
0
LINE
8
MTC_OUTLINE
10
2.56241901774192
20
7.07236609751293
30
0.0
11
2.63399709003558
21
7.13313450758212
31
0.0
0
LINE
8
MTC_OUTLINE
10
2.63399709003558
20
7.13313450758212
30
0.0
11
2.70789479762224
21
7.19278584016931
31
0.0
0
LINE
8
MTC_OUTLINE
10
2.70789479762224
20
7.19278584016931
30
0.0
11
2.78408013928739
21
7.25133550624719
31
0.0
0
LINE
8
MTC_OUTLINE
10
2.78408013928739
20
7.25133550624719
30
0.0
11
2.86252871969169
21
7.30879525399199
31
0.0
0
LINE
8
MTC_OUTLINE
10
2.86252871969169
20
7.30879525399199
30
0.0
11
2.94334967482307
21
7.36511252628192
31
0.0
0
LINE
8
MTC_OUTLINE
10
2.94334967482307
20
7.36511252628192
30
0.0
11
3.02641366893765
21
7.42034960792855
31
0.0
0
LINE
8
MTC_OUTLINE
10
3.02641366893765
20
7.42034960792855
30
0.0
11
3.1118532589979
21
7.4744426628632
31
0.0
0
LINE
8
MTC_OUTLINE
10
3.1118532589979
20
7.4744426628632
30
0.0
11
3.19957808496005
21
7.52743520618951
31
0.0
0
LINE
8
MTC_OUTLINE
10
3.19957808496005
20
7.52743520618951
30
0.0
11
3.28975579502219
21
7.57924650279039
31
0.0
0
LINE
8
MTC_OUTLINE
10
3.28975579502219
20
7.57924650279039
30
0.0
11
3.38227945794093
21
7.62992804803862
31
0.0
0
LINE
8
MTC_OUTLINE
10
3.38227945794093
20
7.62992804803862
30
0.0
11
3.47731616897851
21
7.67939937309696
31
0.0
0
LINE
8
MTC_OUTLINE
10
3.47731616897851
20
7.67939937309696
30
0.0
11
3.52258277985554
21
7.65874095590304
31
0.0
0
LINE
8
MTC_OUTLINE
10
3.52258277985554
20
7.65874095590304
30
0.0
11
3.56772666716754
21
7.63781571517296
31
0.0
0
LINE
8
MTC_OUTLINE
10
3.56772666716754
20
7.63781571517296
30
0.0
11
3.61274625814274
21
7.61662437992298
31
0.0
0
LINE
8
MTC_OUTLINE
10
3.61274625814274
20
7.61662437992298
30
0.0
11
3.65763998433972
21
7.59516768843985
31
0.0
0
LINE
8
MTC_OUTLINE
10
3.65763998433972
20
7.59516768843985
30
0.0
11
3.70240628170208
21
7.57344638825511
31
0.0
0
LINE
8
MTC_OUTLINE
10
3.70240628170208
20
7.57344638825511
30
0.0
11
3.74704359061293
21
7.551461236119
31
0.0
0
LINE
8
MTC_OUTLINE
10
3.74704359061293
20
7.551461236119
30
0.0
11
3.79155035594923
21
7.52921299797413
31
0.0
0
LINE
8
MTC_OUTLINE
10
3.79155035594923
20
7.52921299797413
30
0.0
11
3.83592502713594
21
7.50670244892879
31
0.0
0
LINE
8
MTC_OUTLINE
10
3.83592502713594
20
7.50670244892879
30
0.0
11
3.85650120786003
21
7.40155488959108
31
0.0
0
LINE
8
MTC_OUTLINE
10
3.85650120786003
20
7.40155488959108
30
0.0
11
3.8745643404653
21
7.29761755044324
31
0.0
0
LINE
8
MTC_OUTLINE
10
3.8745643404653
20
7.29761755044324
30
0.0
11
3.89028152021395
21
7.19480996264806
31
0.0
0
LINE
8
MTC_OUTLINE
10
3.89028152021395
20
7.19480996264806
30
0.0
11
3.90354581586262
21
7.09318362157831
31
0.0
0
LINE
8
MTC_OUTLINE
10
3.90354581586262
20
7.09318362157831
30
0.0
11
3.9145248756094
21
6.9926577921169
31
0.0
0
LINE
8
MTC_OUTLINE
10
3.9145248756094
20
6.9926577921169
30
0.0
11
3.9231283394105
21
6.89327598936747
31
0.0
0
LINE
8
MTC_OUTLINE
10
3.9231283394105
20
6.89327598936747
30
0.0
11
3.9294887642284
21
6.79497437726135
31
0.0
0
LINE
8
MTC_OUTLINE
10
3.9294887642284
20
6.79497437726135
30
0.0
11
3.93347681431922
21
6.69781524061009
31
0.0
0
LINE
8
MTC_OUTLINE
10
3.93347681431922
20
6.69781524061009
30
0.0
11
3.93520162567089
21
6.6017460222919
31
0.0
0
LINE
8
MTC_OUTLINE
10
3.93520162567089
20
6.6017460222919
30
0.0
11
3.93463880294408
21
6.50677847048303
31
0.0
0
LINE
8
MTC_OUTLINE
10
3.93463880294408
20
6.50677847048303
30
0.0
11
3.93175634492426
21
6.41292799615617
31
0.0
0
LINE
8
MTC_OUTLINE
10
3.93175634492426
20
6.41292799615617
30
0.0
11
3.9265192516803
21
6.32021145438979
31
0.0
0
LINE
8
MTC_OUTLINE
10
3.9265192516803
20
6.32021145438979
30
0.0
11
3.91888935639666
21
6.22864722535356
31
0.0
0
LINE
8
MTC_OUTLINE
10
3.91888935639666
20
6.22864722535356
30
0.0
11
3.90882514175553
21
6.13825530273398
31
0.0
0
LINE
8
MTC_OUTLINE
10
3.90882514175553
20
6.13825530273398
30
0.0
11
3.89628153942158
21
6.04905739029743
31
0.0
0
LINE
8
MTC_OUTLINE
10
3.89628153942158
20
6.04905739029743
30
0.0
11
3.88112001392173
21
5.96112020321157
31
0.0
0
LINE
8
MTC_OUTLINE
10
3.88112001392173
20
5.96112020321157
30
0.0
11
3.86324757073945
21
5.87448852527524
31
0.0
0
LINE
8
MTC_OUTLINE
10
3.86324757073945
20
5.87448852527524
30
0.0
11
3.84247758156982
21
5.78925223194326
31
0.0
0
LINE
8
MTC_OUTLINE
10
3.84247758156982
20
5.78925223194326
30
0.0
11
3.81856749185856
21
5.70552813133262
31
0.0
0
LINE
8
MTC_OUTLINE
10
3.81856749185856
20
5.70552813133262
30
0.0
11
3.79115590710713
21
5.62349026186121
31
0.0
0
LINE
8
MTC_OUTLINE
10
3.79115590710713
20
5.62349026186121
30
0.0
11
3.75960733445115
21
5.54344466076295
31
0.0
0
LINE
8
MTC_OUTLINE
10
3.75960733445115
20
5.54344466076295
30
0.0
11
3.72263739249539
21
5.46600985351864
31
0.0
0
LINE
8
MTC_OUTLINE
10
3.72263739249539
20
5.46600985351864
30
0.0
11
3.68736494327422
21
5.38775757685774
31
0.0
0
LINE
8
MTC_OUTLINE
10
3.68736494327422
20
5.38775757685774
30
0.0
11
3.66223726895549
21
5.30461983409031
31
0.0
0
LINE
8
MTC_OUTLINE
10
3.66223726895549
20
5.30461983409031
30
0.0
11
3.65085968063678
21
5.21486039889885
31
0.0
0
LINE
8
MTC_OUTLINE
10
3.65085968063678
20
5.21486039889885
30
0.0
11
3.65830514734752
21
5.11603625815679
31
0.0
0
LINE
8
MTC_OUTLINE
10
3.65830514734752
20
5.11603625815679
30
0.0
11
3.69726153993832
21
5.00203725529577
31
0.0
0
LINE
8
MTC_OUTLINE
10
3.69726153993832
20
5.00203725529577
30
0.0
11
3.7422606774768
21
4.93274751631452
31
0.0
0
LINE
8
MTC_OUTLINE
10
3.7422606774768
20
4.93274751631452
30
0.0
11
3.78224992151535
21
4.889680063123
31
0.0
0
LINE
8
MTC_OUTLINE
10
3.78224992151535
20
4.889680063123
30
0.0
11
3.85192798168517
21
4.83231522962022
31
0.0
0
LINE
8
MTC_OUTLINE
10
3.85192798168517
20
4.83231522962022
30
0.0
11
3.85402438580106
21
4.83064340312546
31
0.0
0
LINE
8
MTC_AXIS
10
0
20
-9.30500015386058
30
0.0
11
0
21
9.30500015386058
31
0.0
0
LINE
8
MTC_AXIS
10
-9.30500015386058
20
0
30
0.0
11
9.30500015386058
21
0
31
0.0
0
ENDSEC
0
EOF